/* XPM */
static char *result[] = {
/* columns rows colors chars-per-pixel */
"80 80 216 2 ",
"   c #313131",
".  c gray20",
"X  c #313334",
"o  c #313537",
"O  c gray21",
"+  c #31373A",
"@  c #31393D",
"#  c #31393E",
"$  c #393939",
"%  c gray23",
"&  c #3E3E3E",
"*  c #313B41",
"=  c #313D44",
"-  c #313F47",
";  c #31414A",
":  c #31414B",
">  c #32414A",
",  c #32414B",
"<  c #32434D",
"1  c #31434E",
"2  c #32434E",
"3  c #324551",
"4  c #324651",
"5  c #324754",
"6  c #324854",
"7  c #324957",
"8  c #324A57",
"9  c #324B5A",
"0  c #324C5A",
"q  c #324C5B",
"w  c #324E5E",
"e  c #325061",
"r  c #325264",
"t  c #335264",
"y  c #325467",
"u  c #335467",
"i  c #325468",
"p  c #335468",
"a  c #32566A",
"s  c #33566A",
"d  c #32566B",
"f  c #33566B",
"g  c #33586E",
"h  c #335A71",
"j  c #335C74",
"k  c #335C75",
"l  c #335E77",
"z  c #335E78",
"x  c #335F78",
"c  c #33607A",
"v  c #33607B",
"b  c #33617B",
"n  c #33627E",
"m  c #33637E",
"M  c gray25",
"N  c #414141",
"B  c #434343",
"V  c #464646",
"C  c #484848",
"Z  c #4B4B4B",
"A  c gray30",
"S  c #4E4E4E",
"D  c #505050",
"F  c #535353",
"G  c #555555",
"H  c #565656",
"J  c #585858",
"K  c #5A5A5A",
"L  c #5B5B5B",
"P  c #5D5D5D",
"I  c gray37",
"U  c #606060",
"Y  c #626262",
"T  c gray39",
"R  c #656565",
"E  c #686868",
"W  c #6A6A6A",
"Q  c gray42",
"!  c #6D6D6D",
"~  c #6F6F6F",
"^  c gray44",
"/  c #727272",
"(  c gray45",
")  c gray46",
"_  c #777777",
"`  c gray47",
"'  c gray48",
"]  c gray49",
"[  c gray50",
"{  c #336481",
"}  c #336581",
"|  c #336784",
" . c #336785",
".. c #346784",
"X. c #346785",
"o. c #346987",
"O. c #336988",
"+. c #346988",
"@. c #346B8B",
"#. c #346D8E",
"$. c #346F91",
"%. c #347194",
"&. c #347195",
"*. c #347398",
"=. c #34759B",
"-. c #34779E",
";. c #3479A1",
":. c #3579A1",
">. c #347AA2",
",. c #347BA4",
"<. c #357BA4",
"1. c #347BA5",
"2. c #357BA5",
"3. c #357CA5",
"4. c #357DA8",
"5. c #357EA8",
"6. c #357FAB",
"7. c #3580AB",
"8. c #3582AE",
"9. c #3584B1",
"0. c #3584B2",
"q. c #3586B4",
"w. c #3586B5",
"e. c #3588B8",
"r. c #358ABB",
"t. c #358CBE",
"y. c #358CBF",
"u. c #368CBE",
"i. c #358EC1",
"p. c #368EC1",
"a. c #358EC2",
"s. c #368EC2",
"d. c #3690C5",
"f. c #3692C8",
"g. c #3694CB",
"h. c #3695CB",
"j. c #3696CE",
"k. c #3697CE",
"l. c #3696CF",
"z. c #3697CF",
"x. c #3698D1",
"c. c #3699D1",
"v. c #3698D2",
"b. c #3699D2",
"n. c #369AD5",
"m. c #369BD5",
"M. c #369DD8",
"N. c #369FDB",
"B. c #379FDB",
"V. c #379FDC",
"C. c #36A1DE",
"Z. c #37A1DE",
"A. c #36A1DF",
"S. c #37A1DF",
"D. c #37A3E2",
"F. c #37A5E5",
"G. c #37A7E8",
"H. c #37A9EB",
"J. c #37A9EC",
"K. c #37ABEE",
"L. c #37ABEF",
"P. c #37ADF2",
"I. c #37AFF5",
"U. c #37B1F8",
"Y. c #37B2F8",
"T. c #38B2F8",
"R. c #38B4FB",
"E. c #38B4FC",
"W. c #38B6FF",
"Q. c #808080",
"!. c gray51",
"~. c gray52",
"^. c gray53",
"/. c gray54",
"(. c gray55",
"). c #8D8D8D",
"_. c gray56",
"`. c #929292",
"'. c gray58",
"]. c #959595",
"[. c #979797",
"{. c gray60",
"}. c #9A9A9A",
"|. c gray61",
" X c #9D9D9D",
".X c #9F9F9F",
"XX c gray63",
"oX c #A2A2A2",
"OX c #A4A4A4",
"+X c #A7A7A7",
"@X c #A9A9A9",
"#X c #AAAAAA",
"$X c #ACACAC",
"%X c #AFAFAF",
"&X c #B1B1B1",
"*X c #B2B2B2",
"=X c #B4B4B4",
"-X c #B6B6B6",
";X c #B7B7B7",
":X c #B9B9B9",
">X c #BCBCBC",
",X c gray",
"<X c gray75",
"1X c #C1C1C1",
"2X c #C3C3C3",
"3X c gray77",
"4X c #C6C6C6",
"5X c gray79",
"6X c #CBCBCB",
"7X c gray80",
"8X c #CECECE",
"9X c gray82",
"0X c LightGray",
"qX c gray83",
"wX c gray84",
"eX c gray85",
/* pixels */
"                                                                                                                                                                ",
"        @ e m m c ;         + ,.d.j     = -.@.+       - a e X       g *.v     X } <.2   = { +             $ `.)   Z oX/.$   & [ ! .           C _ !.K           ",
"      ;.U.W.W.W.W.R.=.      7.W.W.W.e   7.W.W.r.  X 8.W.W.W.F.-   g W.W.W.9.  w.W.W.8.  7.W.+.  b.P.;     ~.eX+X  -XeXeX`.% 3XeXeX]       . [.eXeXeXeX@X$       ",
"    f W.W.W.W.W.W.W.W.w     A.W.W.W.2.  +.W.W.G.  m W.W.W.W.W.-.  8.W.W.W.W.w W.W.W.0.  %.W.g q W.W.q     [.eXF C eXeXeX1X^ eXeXeX@X      _.eXeXeXeXeXeX+X      ",
"    b W.W.W.W.W.t.w.W.@.    F.W.W.W.-.  X M.W.7.  $.W.W.W.W.W.#.  *.W.W.W.W.$.d.W.W.P.%.D.W.t.m.W.R.      I wX2X4XeXeXeX&X) eXeXeX.X    % 0XeXeXeXeXeXeXeXD     ",
"    = P.W.W.E.}     5.0.    G.W.W.E.6     5.D.X   f W.G.d.0.m     > I.W.W.W.*.+ *.b.F.h.h.r.k.P.W.W.f       I OX,X9XeXeXE H eXeXeX/     L eXeXeXeXeXeXeXeX^     ",
"      5 4.7.e       - U.h n W.W.W.+.  - *.R.I.2   h d.X   = #.$.1   e I.W.W.+.      - X       o @.W.I.3           & eX_.  & eXeX3XO     G eX9XE '.eXeXeXeXD     ",
"                      G.W.W.E.f.r = r.W.W.W.W.U.i.K.m   3 H.W.W.R.6.+ k W.W.u     9.W.m.  * l #   5.W.9.  $ G $   ^ 5X.   E eXeXL ) ,X+XO 5XoX  . %XeXwXQ.      ",
"      o 3             F.W.0.=   = D.W.W.W.W.W.W.W.W.f.w b.w.D.W.W.W.%.  D.W.t   * W.W.E.o z.W.B.  u W.D.& 5XeXeX4XeXeX|.|.0XeX>X  5XeXeXJ [ -X    . J E C       ",
"    w H.W.m.2       w W.M.      r.W.W.W.W.W.W.W.W.W.W.W.z   + 5.W.W.*.  D.W.#.  l Y.h.}   d.W.W.# @.W.M.S eXeXeX5X3X4XeXeXeXeX$X  C ^.wXT L eXOX^ ' 1XeXwXT     ",
"    f.W.W.W.K.v + y H.W.L.=   * W.W.W.W.W.W.W.W.W.W.W.L.        6 j X 8 W.W.I.-.H.%.      2 E.X.= G.W.m   G ! L M     & ` 4XeX1X      [.;XoXeXeXeXeXeXeXeX]     ",
"    D.W.W.W.W.W.W.W.W.W.W.S.# , W.W.W.W.W.E.L.W.W.W.W.h.    } g.;.0 y D.W.W.W.W.W.B.-     f W.-.K.Y.@.    % 5XeXeX4X(.M   & =XeX`   . =XeXeXeXeXeXeXeXeX*X%     ",
"    r.W.W.W.W.W.W.W.W.Y.W.W.5.  m.W.W.D.m o   b W.W.W.d.    M.W.W.W.P.7.g 2 , 3 z e.T.M.G.W.a.@.j #       % qXeXeXeXeX5XD   V qXeX:X4XeXeX:X@X}.}.[.] P         ",
"    w E.W.W.W.W.M.x +   i H.N.  # +.f X         d.W.W.7.    2 8.s.O.+               2 z.W.+.    U !.P       I OX%X&XeXeX1X    .XeXeXwX_.M                       ",
"      h D.P.f.z           $.P.                  *.W.W.X.                              # Y.g   E eXeXeXOX$           !.eXeXF   ~.eXeXE         . ^ %X3X|.B       ",
"        ; r 9             =.W.+                 s.W.E.=     5 m | j 9 X               # U.%.  `.eXeXeXeX+X.         R eXeXD   _.eX%X        B &XeXeXeXeX>X.     ",
"      +.W.W.W.K.5.r + + #.R.W.l               e W.W.&.  * d.W.W.W.W.W.I.d.$.r =     8 g.W.m   C <XeXeXeXeX`.      $ -XeX;X. O 4XeXOX      T 6XeXeX;XwXeXeXG     ",
"    # R.W.W.W.W.W.W.W.W.W.W.W.H.2           r H.E.&.    r.W.W.W.W.W.W.W.W.W.W.W.R.I.W.E.&.        P OXeXeXeX$XY ^ >XwX}.M . {.eXeXwX/._ %XeXeXeX4X  ~.eXeXG     ",
"    w W.W.W.W.W.W.W.W.W.W.W.W.W.P.%.5 > h e.W.0.2       R.W.W.W.W.W.W.W.W.W.W.W.W.W.H.8 + -.N.C.e.g   F 4XeXeXeXeX3XS $ ] 1XeXeXeXeXeXeXeX( =XeX0XM & 4X4XO     ",
"    * W.W.W.W.W.W.W.W.W.W.W.W.W.W.W.W.W.W.W.k           H.W.W.W.W.W.D.+.3 - f F.W.Y.5   w.W.W.W.W.W.m.5 M 4XeXeXeXU $ ,XeX`.R 9XeXeXeXeXeXO L eXeX[.  O $       ",
"      e.W.W.W.W.W.W.W.W.W.W.I.b.h.G.W.W.W.j.            f H.W.W.z.x X         w W.>.    R.W.W.W.W.W.W.I.e F wXeXeX. W eXeXG   ,XwXP G wXeX/.$ qXeX;X  & O       ",
"      + w.W.W.W.W.W.W.B.=.e X     X 8.W.W.Z.X             X , *                 W.2     b.W.W.W.W.W.W.W.P.- /.eXeXF S wXeXF F eX>X    3XeX0X  T }.F [.eX1X&     ",
"          2 X.*.&.j =               w W.W.W.F.g.M.F.n.4.r                     * m.      * 7.G.W.W.W.W.W.W.9.$ 4XeX-X& S G C ,XeXwXS   `.eX$X    B &XeXeXeX_     ",
"          @ j m c 5                 n W.W.W.F.s.0.0.f.J.W.N.n X               -.m               o 8 5.W.W.U.+ U wXeX9X+XOXwXeXeXeX8X] A F B L _.8XeXeXeXeXR     ",
"        X.I.W.W.W.W.G.8.s o       w H.W.s.q             2 3.E.G.$.>       # =.s.X g x.C.7.1           7.W.W.e   R 4XeX7XOX] ^ ~.7XeXeXeXeXeXeXeXeXeXeXeX.X.     ",
"      r W.W.W.W.W.W.W.W.W.R.M.g.Z.W.W.#.                    m W.W.W.F.g.n.G.&.X ; R.W.W.W.U.#.        } W.W.t                   M ,XeXeXeX:X] ^ ) ~.] G         ",
"      e.W.W.W.W.W.W.W.W.W.L.Y.W.W.W.w.                        J.W.W.L.8.p X     r W.W.W.W.W.W.g.e   6 S.W.W.#     E @X=X_.V       P eXeXOX.         B Y O       ",
"      r.W.W.W.W.W.W.W.b.r   - I.W.W.4                       X H.E.$.o           X V.W.W.W.W.W.W.W.W.W.W.W.d.    E eXeXeXeX9XT     $ eXeXF         ^ 0XeX,X&     ",
"      e E.W.W.W.W.P...X     o I.W.G.          o g $.o.a > < 5.E.e       n I.H.#.  = f.W.W.W.W.W.W.W.W.W.Y.8     .XeXeXeXeXeXwXE   E eXeXD       ' eXeXeXeX]     ",
"        8 w.k.s.@.#         %.W.W.F.        g H.W.W.W.W.W.W.W.8.        H.W.W.W.*.    r t.W.W.W.W.W.W.I.h       !.eXeXeXeXeXeXwX%X0XeXeX&XD F }.eXeXeXeXeXT     ",
"                            G.W.W.W.o     r R.W.W.W.W.H.u.M.W.+.        d.W.W.W.R.5       g I.W.E.d.&.=         O ~.}./.) ~.4XeXeXeXeXeXeXwX$X] T L E ^ S       ",
"        o m 4.7...=       * W.W.W.W.q     N.W.W.W.W.s.+     #.d.        X x H.W.W.p.        i W.r                           M 3XeXeXeXeX XU ^.:X6X3XoXL         ",
"      3 D.W.W.W.W.U.*.X     I.W.W.W.t   3 W.W.W.W.W.-         z.*.X         4.W.W.W.g         N.-         Z @X`.$             ] eXeXwX! ~.wXeXeXeXeXeXwXW       ",
"    X D.W.W.W.W.W.W.W.r.    $.W.W.L.+   t W.W.W.W.L.          ;.W.G.e.*.=.p.R.W.W.W.H.3     * I.F.h X     ;XeXeX&X$           / eXwXE }.eXeXeXeXeXeXeXeX5X      ",
"    j W.W.W.=.t b D.W.W.%.    e } >     8 W.W.W.W.F.        = H.W.W.G.W.W.W.W.W.W.W.W.U.6.-.F.W.W.W.G.m   9XeXeXeX&XB       . %XeX).T eXeXeXeXeXeXeXeXeXeXV     ",
"    =.W.W.M.  o * - Y.W.R.0               D.W.W.W.N.      + m.W.W.r   -.W.W.W.S.z -.L.W.W.W.W.W.W.W.W.W.j @XeXeXeXeX8X_.R ) -XeX8X% OXeXeXeXeXeXeXeXeXeXeXC     ",
"    &.W.W.W.x.I.R.; u.W.W.M.X             r Y.W.W.$.    X p.W.W.j.    : W.W.W. .    o b 8.k.F.k.8.h p E.z.D 9XeXeXeXeXeXeXeXeXeX/.  :XeXeXeXeXeXeXeXeXeX5X      ",
"    2 E.W.W.W.W.W.2 f.W.W.W.*.              2 @.f     o r.W.W.W.d.      Y.W.W...                      b.I.  F ;XeXeX8X[.R ! ,XeXF   OXeXwXOX&XeXeXeXeXwXT       ",
"      z I.W.W.W.-.= U.W.W.W.R.y                     = b.W.W.W.W.R.e     0.W.I.2   ; %.#.;             m.W.      M C .       U eX$   ' eX'     Q 3X8X@XG         ",
"        - X.*.r X d.W.W.W.W.W.I.g                 } K.W.W.W.W.W.W.I.#.o   w =   X G.W.W.U.*.X       7 R.W.      %           ! eX&   P eXV                       ",
"              o r.W.W.W.W.W.W.W.W.t.u +   X 5 @.N.W.W.W.P.=.t g s.W.W.K.8.0     - W.W.W.W.W.B.v 8 } H.W.M.  & &XeX8X`       :XeX[   U eXE                       ",
"            ; m.L.m o X g E.W.W.W.W.W.W.W.W.W.W.W.W.W.F.>         8.W.W.W.W.k.3   D.W.W.W.W.W.W.W.W.W.W.k   !.eXeXeXeXE   & eXeXeX@X1XeX4X) ^ E %   !.$XJ       ",
"          | I.P.3       o L.E.8. .=.S.W.W.W.W.W.W.W.W.w           # Y.W.W.W.W.I.5 e L.W.W.W.W.W.W.W.P.m     Q.eXeXeXeX,X    1XeXeXeXeX5X7XeXeXeX'.! eXeX1X      ",
"      + r.W.W...      8 j.E.f       X +.Y.W.W.W.W.W.f.              g.W.W.W.W.W.Z.X # } 4.e.h.r.4.m #       B 9XeXeXeXeXD   L eXeXeX@X. O ~.wXeXQ [.eXeXeXB     ",
"      p.W.W.G.X X v c.W.W.-.  g m.F.t.5 e I.W.W.W.W.=.              u.W.W.W.W.W.W.l                     M ! Z J 7XeXeXeX_     >XeXeX[.    . Z C   }.eXeXeXL     ",
"    - W.W.W.m - Z.W.W.W.P.# 8 R.W.W.W.I.5 m W.W.W.W.=.              Z.W.W.W.W.W.W.8.        D G .     F 9XeXeX^.B $XeXeX&X  . 3XeXeXeX%X$X0X0XZ   ^.eXeXeXF     ",
"      0.F.&.  e.W.W.W.W.@.  0.W.W.W.W.W.t.  S.W.W.W.e.            u W.W.W.W.W.W.W.h.      ~.eXeX2XF   $XeXeXeXeXV   ~.eXeX$X=XeX^.F ,XeXeXeXeXC   ).eXeX9X.     ",
"              b.W.W.W.e.    M.E.z *.W.W.F.  ;.W.W.W.L.X         # F.W.W.W.W.W.W.W.u.      ;XeXeXeX4X$ ,XeXeXeXeXL     /.eXeXeXeXU   M %XeXqX~.    -XeXeX].      ",
"              w s.u.h       F.d.  , W.W.b.  *.W.W.W.W.m         2.W.W.W.W.W.W.W.W.@.      ! eXeXeXeXE ~.eXeXeXeXJ     . 1XeXeXeX=X%     M $   . /.eXeX7XB       ",
"                            F.M.    4.r.2   d.W.W.W.W.G.+       D.W.W.W.W.W.W.W.L.#         5XeXeXeX^ O ;XeXeXeXV       ).eXeXeXeX5X'.!.^ ^ /.,XeXeX8XJ         ",
"      - 4.r.| o           X P.W.y         y R.W.W.W.W.W.p.      h.W.W.W.W.W.W.E.g         S 9XeXeXeXD   C qXeXeXV       ~.eXeXeXeXeXeXeXeXeXeXeXqX.XV .         ",
"    X F.W.W.W.D.f         @.W.W.I.@.5 5 %.U.W.W.W.W.W.W.W.,.    q I.W.W.W.W.H.d     . ] =XeXeXeXeX].      OXeXeXP       OXeX@XT %     % C L L J O M 4X8XR       ",
"    q W.W.W.W.W.W.m.-.=.f.W.W.W.W.W.W.W.W.W.W.z.6 2 w.W.W.W.,.    - *.w.8.} o       !.eXeXeXeX5X`         +XeXeX,XC $ ~.eXQ.      C !.+X4XeX1X^.. ] eXeX5X      ",
"    = E.W.W.W.W.W.W.W.W.W.W.W.W.W.W.W.W.W.W.I.=       d.W.W.W.,.                    %XeXeXeX+XO       % /.eXeXeXeXeXeXeX=X    M XXeXeXeXeXeXeXeX[ ' eXeXeXV     ",
"       .E.W.W.W.Y.t.m 2   + d.W.W.W.W.W.W.W.u.        r W.W.W.W.*.                  [.eXeXeXU       ` 8XeXeXeXeX@X3XeXeX~.  Z 5XeXeXeXeXeXeXeXeX%XT eXeXeXV     ",
"        - b +.f o         - B.W.W.W.W.W.W.W.7.        o W.W.W.W.R.w         D ] U   % *XeXeX&XJ L @X9X&X+XqXeXeX  C wXeX~.. :XeXeXeXeXeXeXeXeXeX^ C eXeXeX$     ",
"            @ r m m @.*.r.U.W.W.W.W.W.W.W.W.u.          Y.W.W.W.W.f.      ` eXeXeX^.  . ] qXeXeXeX' O     B 5XeX`    XeX/ P eXeXeX$X~.] ~.'.).J   F eXeX<X      ",
"        5 i.R.W.W.W.W.W.W.l.h , 5 w.W.W.W.W.H.X         F.W.W.W.W.W.*   B 0XeXeXeXwXS     R eXeX=X          ).eXwXZ $ E . !.eXwXE               B &XeXeX!.      ",
"      w I.W.E.r.d.W.W.W.1.        3 W.W.W.W.W.j         A.W.W.W.W.W.t   ' eXeXeXeXeX+X      5XeX0X/ _ ^.C   ^ eXeXE       ) eX.X      . (.4XeXeXeXeXeX,X$       ",
"    X Z.W.W.r     9.W.b.X       3 m.G.P.W.W.W.F.+       r.W.W.W.W.W.8   Q.eXeXeXeXeXeX^.O D 0X7X7XeXeXeX%X  . /./..       M qX].    . XXeXeXeXeXeXwXOXM         ",
"    g W.W.b.      =.W.j     = 9.P.r   o =.W.W.W.p.X     h W.W.W.W.m.    D wXeXeXeXeXeXeXeXeX!..   R :XeX^.  B ) `.'.] A     oX8XJ & |.8X!.P L ^ P %             ",
"    4.W.W.f.      f.W.,   w K.W.=.        s.W.W.W.d.#     5.W.W.V.2       I =XeXeXeXeXeXeX&X          $ $ '.wXeXeXeXeXeX@XP ;XeXeXeXqXS     . Y [ ~ B           ",
"    h.W.W.D.    * R.W.5   D.W.W.+.        v W.W.W.W.F.g     6 q X             % S U ~.4XeX`     N     $ &XeXeXOXE D P ).8XeXeXeXeXeX[.    U 4XeXeXeXwX|.$       ",
"    h.W.W.W.=   @.W.W.}   W.W.W.t.        g W.W.W.W.W.W.f.8                   V :X|.& $ =XL   |.eX}.  '.eX5XL           V ,XeXeXeXeXE   J wXeXeXeXeXeXeX@X      ",
"    f.W.W.W.u   d.W.W.0.  S.W.W.I.        -.W.W.W.P.F.I.W.W.d.r               ^ eXeX&XO ) /./ eXeX8XZ eXwXF               M 4XeXeXeXL   >XeXeXeXeXeXeXeXeXO     ",
"    4.W.W.W.z   F.W.W.s.  g E.W.s.      = P.W.L.h     X h F.W.W.g.r           & >XeXeX8X0XeXeXeXwX) ~.eX`.        ) :X6X=XP ^ eXeXeXL J eXeXeXeXeXeXeXeX&X      ",
"    e W.W.P.*   3.W.E.i     ; r X     + k.W.W.$.    # r o = S.W.W.W.r.-         . F ' 5XeXeX8X^.M   +XeXL       ).eXeXeXeXwXD qXeXeXL ^.eXeXeXeXeXeX7X[.&       ",
"      h 7.q       q -               0 M.W.W.W.@.  = S.W.b.  q W.W.W.W.K.r             Z wXqXZ       %XeXV     J eXwX!.! 3XeX/.3XeXeXZ %XeXeX+XR C $             ",
"        # | r.g.g.g.q.<.*.m m o.;.m.W.W.P.E.W.U.e.G.W.W.W.,   t.W.W.W.W.R.h       Y Z   OXOX        .XeXE   . =XeX.X    F eX~.1XeX9X$ 0XeX`.      B R M         ",
"      3 G.W.W.I.b.h.A.W.W.W.W.W.W.W.W.#.  + 7.W.W.W.W.W.P.+   z W.W.W.W.W.I.=   R eXwX^ ) OX        !.eX5X] $XeXeX:X.     7XP OXeX] P eX3X.     $ 6XeX8XF       ",
"    o F.W.W.-.o       * #.I.W.E.f.B.W.,       1.W.W.W.W.X.    2 W.W.W.W.W.W.;.  S eXeX>XP 9XO       ^ eXeXeXeX.X#XeX}.  $ eXO O C   OXeX_.      V eXeXeX,X      ",
"    m W.W.W.X + :.C.7.*   f W.}     y.@.      X #.k.r.e @ +   , W.W.W.W.W.W.A.    +XeX,XL eX^.      ] eXeXeXeXC . <XeXD / eX$     R eXeX^.      . 9XeXeXeXZ     ",
"    8.W.W.W.0.F.W.W.W.a.    P.l     - P.e             $.U.I.; r W.W.W.W.W.W.R.    `.eX~.U eXeX~.O V 4XeXeXeXeX[.. Z .XC 6XeX`.$ / 1X.XwX=X        3XeXeXeXJ     ",
"    0.W.W.W.W.W.W.W.W.F.  = W.v.      d.I.m       + 9.W.W.W.e m W.W.W.W.W.W.G.  % 6X1XO `.eXeXeXeXeXeXL &XeXeXeX=XM   [.eXwX&X8X>XM   .XeX[     P eXeXeXqX%     ",
"     .W.W.W.W.W.W.W.W.w.  *.W.W.j     f W.W.D.q.r.P.W.W.W.V.o w W.W.W.W.W.W.5.  ] eX=X_.eX7XQ.1XeXeXeX  ` eXeXeXeX`.O 0XeX#X      % W 6XeXeX,X=XeXeXeXeX).      ",
"    X z.W.W.W.W.W.W.S.#   h.W.W.0.      $.W.W.W.W.W.W.W.r.=     1.W.W.W.W.S.#   /.eXeXeXeXI   T eXeX8X  O >XeXeXeX).M eXeX0XM   Z 0XeX>XP }.wXeXeXeXeX}..       ",
"      o *.F.W.W.H.-.+     h P.Y.k         r t.L.E.A.8.w           j u.f.&.+     V 4XeX9X/       ).:XR     M oX3X+X&   |.eX9XV   $ ).|.I     V ] [.~.F           ",
"            # #               X                                                   O D $                                 B %                                     ",
"                                                                                                                                                                ",
"                                                                                                                                                                "
};
