/* XPM */
static char *result[] = {
/* columns rows colors chars-per-pixel */
"80 80 211 2 ",
"   c #313131",
".  c #343332",
"X  c #343434",
"o  c #373634",
"O  c #373737",
"+  c #3A3836",
"@  c #3A3A3A",
"#  c #3D3A38",
"$  c gray24",
"%  c #3E3E3E",
"&  c #403D39",
"*  c #433F3B",
"=  c #43403B",
"-  c #46423D",
";  c #49443F",
":  c #414141",
">  c #444444",
",  c gray28",
"<  c #4C4740",
"1  c #4C4741",
"2  c #4F4942",
"3  c gray29",
"4  c #4B4B4B",
"5  c gray30",
"6  c #4E4E4E",
"7  c #524B44",
"8  c #524C44",
"9  c #554E46",
"0  c #585047",
"q  c #585148",
"w  c #5B5349",
"e  c #5B534A",
"r  c #5E554B",
"t  c #5E564B",
"y  c #515151",
"u  c gray33",
"i  c gray34",
"p  c #5A5A5A",
"a  c #5B5B5B",
"s  c gray37",
"d  c #61574D",
"f  c #61584D",
"g  c #645A4E",
"h  c #645A4F",
"j  c #645B4F",
"k  c #675D50",
"l  c #675D51",
"z  c #6A5F52",
"x  c #6A6052",
"c  c #6D6254",
"v  c #706455",
"b  c #706456",
"n  c #706556",
"m  c #736657",
"M  c #736757",
"N  c #736758",
"B  c #766959",
"V  c #796B5B",
"C  c #796C5B",
"Z  c #7C6E5D",
"A  c #7F705E",
"S  c #7F705F",
"D  c #7F715F",
"F  c gray38",
"G  c #646464",
"H  c #676767",
"J  c #686868",
"K  c #6A6A6A",
"L  c gray42",
"P  c gray43",
"I  c #717171",
"U  c #747474",
"Y  c gray46",
"T  c #777777",
"R  c gray47",
"E  c gray48",
"W  c #7B7B7B",
"Q  c #7E7E7E",
"!  c #827360",
"~  c #857562",
"^  c #857662",
"/  c #887864",
"(  c #897864",
")  c #8B7A66",
"_  c #8E7D67",
"`  c #8E7D68",
"'  c #917F69",
"]  c #94826B",
"[  c #97846D",
"{  c #9A866E",
"}  c #9A876E",
"|  c #9B876E",
" . c #9A876F",
".. c #9D8970",
"X. c #A08B72",
"o. c #A08C72",
"O. c #A18C72",
"+. c #A38E74",
"@. c #A48E74",
"#. c #A69075",
"$. c #A69076",
"%. c #A79176",
"&. c #A99377",
"*. c #AA9377",
"=. c #AC9579",
"-. c #AD9679",
";. c #AF987B",
":. c #B0987B",
">. c #B29A7C",
",. c #B29A7D",
"<. c #B59C7E",
"1. c #B59D7E",
"2. c #B69D7E",
"3. c #818181",
"4. c #848484",
"5. c gray52",
"6. c gray53",
"7. c #888888",
"8. c #8B8B8B",
"9. c #8E8E8E",
"0. c gray57",
"q. c gray58",
"w. c #959595",
"e. c #989898",
"r. c #9B9B9B",
"t. c gray62",
"y. c #B89F80",
"u. c #B99F80",
"i. c #BBA182",
"p. c #BBA282",
"a. c #BCA282",
"s. c #BEA483",
"d. c #BEA484",
"f. c #BFA484",
"g. c gray63",
"h. c #A2A2A2",
"j. c #A4A4A4",
"k. c #A5A5A5",
"l. c gray66",
"z. c gray67",
"x. c #AEAEAE",
"c. c #B1B1B1",
"v. c #B2B2B2",
"b. c #B4B4B4",
"n. c gray71",
"m. c gray72",
"M. c #BBBBBB",
"N. c gray",
"B. c gray75",
"V. c #C1A685",
"C. c #C2A785",
"Z. c #C2A786",
"A. c #C4A987",
"S. c #C5A987",
"D. c #C7AB89",
"F. c #C8AB89",
"G. c #C8AC89",
"H. c #CAAE8B",
"J. c #CBAE8B",
"K. c #CDB08C",
"L. c #CEB08C",
"P. c #CEB08D",
"I. c #D0B28E",
"U. c #D1B38E",
"Y. c #D3B590",
"T. c #D4B590",
"R. c #D6B792",
"E. c #D7B892",
"W. c #D9BA93",
"Q. c #DABA94",
"!. c #DCBC95",
"~. c #DDBC95",
"^. c #DDBD95",
"/. c #DFBF97",
"(. c #E0BF97",
"). c #E2C199",
"_. c #E3C199",
"`. c #E3C299",
"'. c #E6C49B",
"]. c #E9C69C",
"[. c #ECC99E",
"{. c #EFCBA0",
"}. c #F2CEA2",
"|. c #C1C1C1",
" X c gray76",
".X c #C5C5C5",
"XX c #C8C8C8",
"oX c #CBCBCB",
"OX c #CECECE",
"+X c gray81",
"@X c gray82",
"#X c #D2D2D2",
"$X c #D5D5D5",
"%X c #D8D8D8",
"&X c gray86",
"*X c gainsboro",
"=X c gray87",
"-X c #DFDFDF",
";X c #E2E2E2",
":X c gray90",
">X c gray91",
",X c gray92",
"<X c #ECECEC",
"1X c #EEEEEE",
"2X c #EFEFEF",
"3X c gray95",
"4X c gray96",
"5X c #F8F8F8",
"6X c #FBFBFB",
"7X c gray99",
"8X c white",
/* pixels */
"                                                                                                                                                                ",
"        $ F Q Q E 3         @ j..XU     > t.8.@       , K F X       P e.W     X 3.j.6   > 3.@             + X.S   2 >.[ +   & ) B .           < ! _ f           ",
"      g.5X8X8X8X8X6Xr.      z.8X8X8XF   z.8X8XM.  X x.8X8X8X:X,   P 8X8X8Xc.  n.8X8Xx.  z.8X7.  #X3X3     ' }.u.  J.}.}.X.# Q.}.}./       . #.}.}.}.}.i.+       ",
"    L 8X8X8X8X8X8X8X8Xs     -X8X8X8Xk.  7.8X8X>X  Q 8X8X8X8X8Xt.  x.8X8X8X8Xs 8X8X8Xv.  q.8XP a 8X8Xa     #.}.q 1 }.}.}.E.C }.}.}.a.      ..}.}.}.}.}.}.y.      ",
"    W 8X8X8X8X8XN.n.8X8.    :X8X8X8Xt.  X %X8Xz.  0.8X8X8X8X8X9.  e.8X8X8X8X0..X8X8X3Xq.;X8XN.$X8X6X      j {.W.!.}.}.}.S.D }.}.}.;.    # [.}.}.}.}.}.}.}.9     ",
"    > 3X8X8X7X3.    l.v.    >X8X8X7Xu     l.;XX   L 8X>X.Xv.Q     3 4X8X8X8Xe.@ e.#X:XoXoXM.OX3X8X8XL       j 1.T.].}.}.b w }.}.}.Z     f }.}.}.}.}.}.}.}.C     ",
"      u l.z.F       , 5XI Q 8X8X8X7.  , e.6X4X6   I .XX   > 9.0.6   F 4X8X8X7.      , X       O 8.8X4Xy           & }...  & }.}.Q.o     e }.].b +.}.}.}.}.9     ",
"                      >X8X8X7XXXG > M.8X8X8X8X5X|.1XQ   y ,X8X8X6Xz.@ Y 8X8XH     c.8X$X  : T %   l.8Xc.  + w +   V (..   b }.}.f S Y.y.o (.,.  . C.}.{.)       ",
"      O y             :X8Xv.>   > ;X8X8X8X8X8X8X8X8XXXs #Xn.;X8X8X8Xq.  ;X8XG   : 8X8X7XO +X8X&X  H 8X;X& /.}.}.~.}.}.=.=.[.}.U.  (.}.}.t ) J.    . t v <       ",
"    s ,X8X$X6       s 8X%X      M.8X8X8X8X8X8X8X8X8X8X8XR   @ l.8X8Xe.  ;X8X9.  T 5XoX3.  .X8X8X% 8.8X%X8 }.}.}.(.Q.^.}.}.}.}.f.  1 ] {.z f }.1.C ~ R.}.{.z     ",
"    XX8X8X8X1XW @ H ,X8X2X>   : 8X8X8X8X8X8X8X8X8X8X8X2X        u U X i 8X8X4Xt.,Xq.      6 7X5.> >X8XQ   w B d *     & ! ^.}.E.      #.H.,.}.}.}.}.}.}.}./     ",
"    ;X8X8X8X8X8X8X8X8X8X8X-X% 4 8X8X8X8X8X7X2X8X8X8X8XoX    3.oXg.p H ;X8X8X8X8X8X&X,     L 8Xt.1X5X8.    # /.}.}.!.{ *   & G.}.!   . F.}.}.}.}.}.}.}.}.S.#     ",
"    M.8X8X8X8X8X8X8X8X5X8X8Xl.  $X8X8X;XQ O   W 8X8X8X.X    %X8X8X8X3Xz.P 6 4 y R m.5X%X>X8X X8.U %       # [.}.}.}.}./.9   ; [.}.K.!.}.}.P.a.&.&.#./ h         ",
"    s 7X8X8X8X8X%XR @   J ,X&X  % 7.L X         .X8X8Xz.    6 x. X7.@               6 +X8X7.    k _ h       j 1.Z.S.}.}.E.    ;.}.}.{...*                       ",
"      I ;X3XXXR           0.3X                  e.8X8X5.                              % 5XP   b }.}.}.1.+           _ }.}.q   ' }.}.n         . V V.Q.=.-       ",
"        3 G p             r.8X@                  X8X7X>     u Q 4.U p X               % 5Xq.  X.}.}.}.}.y..         c }.}.9   ..}.Z.        - A.}.}.}.}.U..     ",
"      7.8X8X8X1Xl.G @ @ 9.6X8XT               F 8X8Xw.  : .X8X8X8X8X8X4X.X0.G >     i oX8XQ   1 T.}.}.}.}.X.      + H.}.J.. o ^.}.1.      z ).}.}.J.{.}.}.e     ",
"    % 6X8X8X8X8X8X8X8X8X8X8X8X,X6           G ,X7Xw.    M.8X8X8X8X8X8X8X8X8X8X8X6X4X8X7Xw.        h 1.}.}.}.d.z V I.{.*.* . &.}.}.{.[ ! V.}.}.}.^.  ' }.}.e     ",
"    s 8X8X8X8X8X8X8X8X8X8X8X8X8X3Xq.u 3 I m.8Xv.6       6X8X8X8X8X8X8X8X8X8X8X8X8X8X,Xi @ t.&X=Xm.P   q ^.}.}.}.}.Q.8 + / R.}.}.}.}.}.}.}.Z G.}.[.* & ^.^.o     ",
"    : 8X8X8X8X8X8X8X8X8X8X8X8X8X8X8X8X8X8X8XY           ,X8X8X8X8X8X;X7.y , L :X8X5Xu   n.8X8X8X8X8X$Xu * ^.}.}.}.l + T.}.o.c ].}.}.}.}.}.o f }.}.$.  o +       ",
"      m.8X8X8X8X8X8X8X8X8X8X4X#XoX>X8X8X8XOX            L ,X8X8X+XR X         s 8Xh.    6X8X8X8X8X8X8X4XF q {.}.}.. N }.}.e   T.{.h w {.}.[ + [.}.J.  & o       ",
"      @ n.8X8X8X8X8X8X&Xr.F X     X x.8X8X=XX             X 4 :                 8X6     #X8X8X8X8X8X8X8X3X, [ }.}.q 8 {.}.q q }.U.    Q.}.[.  x &.q #.}.R.&     ",
"          6 5.e.w.U >               s 8X8X8X:XoX%X:X$Xl.G                     : $X      : z.>X8X8X8X8X8X8Xc.+ ^.}.H.& 8 w < T.}.{.8   o.}.f.    - A.}.}.}.!     ",
"          $ U Q E u                 Q 8X8X8X:X Xv.v.XX<X8X&XQ X               t.Q               O i l.8X8X5X@ k {.}.].y.<.{.}.}.}.'./ 7 q - f ..'.}.}.}.}.c     ",
"        5.4X8X8X8X8X>Xx.K O       s ,X8X Xa             6 k.7X>X0.3       % r. XX P @X=Xz.6           z.8X8XF   c ^.}.`.1./ C ' _.}.}.}.}.}.}.}.}.}.}.}.;..     ",
"      G 8X8X8X8X8X8X8X8X8X6X%XoX=X8X8X9.                    Q 8X8X8X:XoX$X>Xw.X 3 6X8X8X8X5X9.        3.8X8XG                   * T.}.}.}.P./ C D ' / w         ",
"      m.8X8X8X8X8X8X8X8X8X2X5X8X8X8Xn.                        <X8X8X2Xx.J X     G 8X8X8X8X8X8XoXF   u -X8X8X%     b i.D...;       h }.}.2..         - z o       ",
"      M.8X8X8X8X8X8X8X#XG   , 4X8X8Xy                       X ,X7X0.O           X *X8X8X8X8X8X8X8X8X8X8X8X.X    b }.}.}.}.].z     + }.}.q         C [.}.T.&     ",
"      F 7X8X8X8X8X3X4.X     O 4X8X>X          O P 0.6.K 3 5 l.7XF       Q 4X,X9.  > XX8X8X8X8X8X8X8X8X8X5Xi     ;.}.}.}.}.}.{.b   b }.}.9       ~ }.}.}.}./     ",
"        i n.OX X8.%         q.8X8X:X        P ,X8X8X8X8X8X8X8Xx.        ,X8X8X8Xe.    G N.8X8X8X8X8X8X4XI       _ }.}.}.}.}.}.{.V.[.}.}.A.9 0 &.}.}.}.}.}.z     ",
"                            >X8X8X8XO     G 6X8X8X8X8X,XN.%X8X7.        .X8X8X8X6Xu       P 4X8X7X.Xw.>         o ' &.[ D ' ^.}.}.}.}.}.}.{.f./ z f b C 8       ",
"        O Q l.z.4.>       : 8X8X8X8Xa     &X8X8X8X8X X@     9..X        X R ,X8X8X|.        J 8XG                           * Q.}.}.}.}.-.k ] K._.Q.>.f         ",
"      y ;X8X8X8X8X5Xe.X     4X8X8X8XG   y 8X8X8X8X8X,         +Xe.X         l.8X8X8XP         &X,         2 i.X.+             / }.}.{.B ' {.}.}.}.}.}.{.M       ",
"    X ;X8X8X8X8X8X8X8XM.    0.8X8X2X@   G 8X8X8X8X2X          g.8X>Xm.e.r.|.6X8X8X8X,Xy     : 4X:XI X     J.}.}.A.+           Z }.{.n &.}.}.}.}.}.}.}.}.(.      ",
"    U 8X8X8Xr.G W ;X8X8Xq.    F 3.3     i 8X8X8X8X:X        > ,X8X8X>X8X8X8X8X8X8X8X8X5Xz.t.:X8X8X8X>XQ   ].}.}.}.A.-       . V.}. .z }.}.}.}.}.}.}.}.}.}.;     ",
"    r.8X8X%X  O : , 5X8X6Xp               ;X8X8X8X&X      @ $X8X8XG   t.8X8X8X-XR t.2X8X8X8X8X8X8X8X8X8XU p.}.}.}.}.'...c S H.}.'.# 1.}.}.}.}.}.}.}.}.}.}.<     ",
"    w.8X8X8X@X4X6X3 N.8X8X%XX             G 5X8X8X0.    X |.8X8XOX    4 8X8X8X5.    O W x.OX:XOXx.I J 7X+X9 ].}.}.}.}.}.}.}.}.}.[   P.}.}.}.}.}.}.}.}.}.(.      ",
"    6 7X8X8X8X8X8X6 XX8X8X8Xe.              6 8.L     O M.8X8X8X.X      5X8X8X4.                      #X4X  q J.}.}.'.$.c B T.}.q   1.}.{.1.S.}.}.}.}.{.x       ",
"      R 4X8X8X8Xt.> 5X8X8X8X6XH                     > #X8X8X8X8X6XF     v.8X4X6   3 q.9.3             $X8X      * < .       l }.+   ~ }.^     M Q.'.p.w         ",
"        , 5.e.G X .X8X8X8X8X8X4XP                 3.1X8X8X8X8X8X8X4X9.O   s >   X >X8X8X5Xe.X       i 6X8X      #           B }.&   j }.;                       ",
"              O M.8X8X8X8X8X8X8X8XN.H @   X u 8.&X8X8X8X3Xr.G P  X8X8X1Xx.p     , 8X8X8X8X8X&XW i 3.,X8X%X  & A.}.'.!       P.}.)   l }.b                       ",
"            3 $X2XQ O X P 7X8X8X8X8X8X8X8X8X8X8X8X8X8X:X3         x.8X8X8X8XOXy   ;X8X8X8X8X8X8X8X8X8X8XY   _ }.}.}.}.b   & }.}.}.i.R.}.!.S C b #   _ s.r       ",
"          4.4X3Xy       O 2X7Xx.5.r.-X8X8X8X8X8X8X8X8Xs           % 5X8X8X8X8X4Xu F 2X8X8X8X8X8X8X8X3XQ     ) }.}.}.}.T.    E.}.}.}.}.(._.}.}.}.+.B }.}.E.      ",
"      @ M.8X8X4.      i OX7XL       X 7.5X8X8X8X8X8XXX              oX8X8X8X8X8X=XX % 3.l.m.oXM.l.Q %       - ].}.}.}.}.9   f }.}.}.p.. o ' {.}.N #.}.}.}.-     ",
"      |.8X8X>XX X W @X8X8Xt.  P $X:XN.u F 4X8X8X8X8Xr.              N.8X8X8X8X8X8XT                     * B 2 t _.}.}.}.!     U.}.}.$.    . 2 1   &.}.}.}.f     ",
"    , 8X8X8XQ , =X8X8X8X3X% i 6X8X8X8X4Xu Q 8X8X8X8Xr.              =X8X8X8X8X8X8Xx.        9 w .     q ].}.}.] - f.}.}.S.  . Q.}.}.}.V.s.[.[.2   ] }.}.}.q     ",
"      v.:Xw.  m.8X8X8X8X8.  v.8X8X8X8X8XN.  -X8X8X8Xm.            H 8X8X8X8X8X8X8XoX      ' }.}.W.q   f.}.}.}.}.;   ' }.}.d.D.}.] q T.}.}.}.}.1   } }.}.]..     ",
"              #X8X8X8Xm.    %X7XR e.8X8X:X  g.8X8X8X2XX         % :X8X8X8X8X8X8X8XN.      J.}.}.}.^.+ T.}.}.}.}.f     [ }.}.}.}.l   * V.}.[.'     J.}.}.@.      ",
"              s  XN.I       :X.X  4 8X8X#X  e.8X8X8X8XQ         k.8X8X8X8X8X8X8X8X8.      B }.}.}.}.b ' }.}.}.}.t     . E.}.}.}.D.#     * +   . [ }.}._.-       ",
"                            :X%X    l.M.6   .X8X8X8X8X>X@       ;X8X8X8X8X8X8X8X2X%         (.}.}.}.C o J.}.}.}.;       } }.}.}.}./.+._ C C [ Y.}.}.'.t         ",
"      , l.M.4.O           X 3X8XH         H 6X8X8X8X8X8X|.      oX8X8X8X8X8X8X7XP         8 ].}.}.}.9   1 [.}.}.;       ' }.}.}.}.}.}.}.}.}.}.}.[.:.; .         ",
"    X :X8X8X8X;XL         8.8X8X4X8.u u q.5X8X8X8X8X8X8X8Xj.    a 4X8X8X8X8X,XL     . / D.}.}.}.}.+.      1.}.}.h       1.}.p.z #     # < f f t o * !.'.c       ",
"    a 8X8X8X8X8X8X$Xt.r.XX8X8X8X8X8X8X8X8X8X8X+Xu 6 n.8X8X8Xj.    , e.n.x.3.O       _ }.}.}.}.(.!         y.}.}.T.< + ' }.)       < _ y.~.}.R.] . / }.}.(.      ",
"    > 7X8X8X8X8X8X8X8X8X8X8X8X8X8X8X8X8X8X8X4X>       .X8X8X8Xj.                    Z.}.}.}.u.o       # [ }.}.}.}.}.}.}.F.    * >.}.}.}.}.}.}.}.) ~ }.}.}.;     ",
"      5.7X8X8X8X5XN.Q 6   @ .X8X8X8X8X8X8X8XN.        G 8X8X8X8Xe.                  %.}.}.}.l       ! '.}.}.}.}.p.Q.}.}.'   2 /.}.}.}.}.}.}.}.}.Z.z }.}.}.;     ",
"        , W 7.L O         , &X8X8X8X8X8X8X8Xz.        O 8X8X8X8X6Xs         9 / k   # S.}.}.A.r f p.].S.u.[.}.}.  1 {.}.' . L.}.}.}.}.}.}.}.}.}.C < }.}.}.+     ",
"            $ G Q Q 8.e.M.5X8X8X8X8X8X8X8X8XN.          5X8X8X8X8XXX      ! }.}.}.]   . / [.}.}.}.~ o     - (.}.!   -.}.Z h }.}.}.f.' ( ' +.} r   q }.}.T.      ",
"        u |.6X8X8X8X8X8X8X+XI 4 u n.8X8X8X8X,XX         :X8X8X8X8X8X:   - [.}.}.}.{.8     c }.}.G.          } }.{.2 + b . _ }.{.n               - A.}.}._       ",
"      s 4X8X7XM..X8X8X8Xk.        y 8X8X8X8X8XU         -X8X8X8X8X8XG   ~ }.}.}.}.}.y.      (.}.[.Z ! ] <   C }.}.b       D }.;.      . { !.}.}.}.}.}.T.+       ",
"    X =X8X8XG     c.8X#XX       y $X>X3X8X8X8X:X@       M.8X8X8X8X8Xi   ) }.}.}.}.}.}.] o 9 [.`.`.}.}.}.Z.  . [ [ .       * [.+.    . ,.}.}.}.}.}.{.1.*         ",
"    P 8X8X#X      r.8XU     > c.3XG   O r.8X8X8X|.X     I 8X8X8X8X$X    9 {.}.}.}.}.}.}.}.}.` .   c P.}.]   - S X.+./ 8     ,.'.t & =.'._ j f C j #             ",
"    l.8X8XXX      XX8X4   s 1X8Xr.         X8X8X8X.X%     l.8X8X*X6       j F.}.}.}.}.}.}.S.          + + +.{.}.}.}.}.}.p.g J.}.}.}.[.8     . z ) V -           ",
"    oX8X8X;X    : 6X8Xu   ;X8X8X7.        W 8X8X8X8X:XP     u a X             # 8 l ' ^.}.!     =     + A.}.}.1.b 9 j | '.}.}.}.}.}.$.    k !.}.}.}.{.=.+       ",
"    oX8X8X8X>   8.8X8X3.  8X8X8XN.        P 8X8X8X8X8X8XXXi                   ; K.=.& + G.f   =.}.&.  +.}.(.f           ; T.}.}.}.}.b   r {.}.}.}.}.}.}.p.      ",
"    XX8X8X8XH   .X8X8Xv.  -X8X8X4X        t.8X8X8X3X:X4X8X8X.XG               C }.}.A.o S [ Z }.}.'.2 }.{.q               * ^.}.}.}.f   U.}.}.}.}.}.}.}.}.o     ",
"    l.8X8X8XR   :X8X8X X  P 7X8X X      > 3X8X2XI     X I :X8X8XoXG           & U.}.}.'.[.}.}.}.{.A ' }.O.        A K._.D.h C }.}.}.f t }.}.}.}.}.}.}.}.S.      ",
"    F 8X8X3X:   k.8X7XJ     3 G X     @ OX8X8X0.    % G O > -X8X8X8XM.,         . q ^ (.}.}.'.] *   u.}.f       } }.}.}.}.{.9 [.}.}.f ] }.}.}.}.}.}.`.%.&       ",
"      I z.a       a ,               p %X8X8X8X8.  > -X8X#X  a 8X8X8X8X1XG             2 {.[.2       Z.}.;     t }.{._ B Q.}.[ Q.}.}.2 Z.}.}.y.c < +             ",
"        % 4.M.oXoXoXb.j.e.Q Q 6.g.$X8X8X3X7X8X5Xm.>X8X8X8X4   N.8X8X8X8X6XI       z 2   1.1.        ;.}.b   . D.}.;.    q }.' E.}.].+ [.}.o.      - c *         ",
"      y >X8X8X4X#XoX-X8X8X8X8X8X8X8X8X9.  @ z.8X8X8X8X8X3X@   R 8X8X8X8X8X4X>   c }.{.C D 1.        _ }././ d.}.}.P..     `.h 1.}./ h }.Q..     + ).}.'.q       ",
"    O :X8X8Xt.O       : 9.4X8X7XXX&X8X4       k.8X8X8X8X5.    6 8X8X8X8X8X8Xg.  8 }.}.U.j ].o       C }.}.}.}.:.p.}.&.  + }.o o 1   1.}...      ; }.}.}.T.      ",
"    Q 8X8X8XX @ g.=Xz.:   L 8X3.    B.8.      X 9.OXM.F $ @   4 8X8X8X8X8X8X-X    y.}.T.f }.]       / }.}.}.}.< . T.}.9 Z }.+     c }.}.]       . ].}.}.}.2     ",
"    x.8X8X8Xv.:X8X8X8X X    3XT     , 3XF             0.5X4X3 G 8X8X8X8X8X8X6X    X.}.' l }.}.' o ; ^.}.}.}.}.$.. 2 :.< ).}.X.+ Z E.;.{.F.        Q.}.}.}.t     ",
"    v.8X8X8X8X8X8X8X8X:X  > 8X#X      .X4XQ       @ c.8X8X8XF Q 8X8X8X8X8X8X>X  # ).E.o X.}.}.}.}.}.}.f S.}.}.}.D.*   $.}.{.S.'.U.*   ;.}.)     h }.}.}.[.#     ",
"    5.8X8X8X8X8X8X8X8Xn.  e.8X8XU     L 8X8X;Xb.M.3X8X8X8X*XO s 8X8X8X8X8X8Xl.  / }.D...}._.) E.}.}.}.  ! }.}.}.}.X.o [.}.a.      # m ).}.}.Y.D.}.}.}.}. .      ",
"    X +X8X8X8X8X8X8X-X%   oX8X8Xv.      0.8X8X8X8X8X8X8XM.>     k.8X8X8X8X-X%   [ }.}.}.}.j   z }.}.'.  o U.}.}.}.} * }.}.[.*   2 [.}.U.j *.{.}.}.}.}.&..       ",
"      O e.:X8X8X,Xt.@     I 3X5XY         G N.2X7X-Xx.s           U N.XXw.@     ; ^.}.].Z        .P.c     * ,.Q.y.&   =.}.].;   + } =.j     ; / #.' q           ",
"            % %               X                                                   o 9 +                                 - #                                     ",
"                                                                                                                                                                ",
"                                                                                                                                                                "
};
