/* XPM */
static char *result[] = {
/* columns rows colors chars-per-pixel */
"80 80 243 2 ",
"   c #313131",
".  c #333131",
"X  c #343331",
"o  c #363231",
"O  c #373532",
"+  c #393231",
"@  c #3B3331",
"#  c #3E3331",
"$  c #3A3733",
"%  c #3D3933",
"&  c #3E3933",
"*  c #403431",
"=  c #413431",
"-  c #433431",
";  c #433531",
":  c #463531",
">  c #483531",
",  c #483631",
"<  c #4B3631",
"1  c #4B3632",
"2  c #4D3731",
"3  c #4E3731",
"4  c #4D3732",
"5  c #4E3732",
"6  c #413C34",
"7  c #443E34",
"8  c #443E35",
"9  c #503731",
"0  c #503732",
"q  c #533832",
"w  c #553832",
"e  c #563832",
"r  c #583932",
"t  c #5A3932",
"y  c #5B3932",
"u  c #5B3A32",
"i  c #5D3A32",
"p  c #5E3A32",
"a  c #603A32",
"s  c #603B32",
"d  c #623B32",
"f  c #633B32",
"g  c #653C32",
"h  c #683C32",
"j  c #6A3D32",
"k  c #6B3D32",
"l  c #6A3D33",
"z  c #6B3D33",
"x  c #6D3D32",
"c  c #6D3D33",
"v  c #6F3E32",
"b  c #703E32",
"n  c #703E33",
"m  c #723E32",
"M  c #733E32",
"N  c #723E33",
"B  c #753F33",
"V  c #773F33",
"C  c #783F33",
"Z  c #474035",
"A  c #4A4236",
"S  c #4B4236",
"D  c #4D4436",
"F  c #4E4436",
"G  c #514637",
"H  c #514737",
"J  c #544937",
"K  c #544938",
"L  c #574B38",
"P  c #5A4D39",
"I  c #5B4D39",
"U  c #5E4F39",
"Y  c #5E4F3A",
"T  c #784033",
"R  c #7A4033",
"E  c #7D4033",
"W  c #7D4133",
"Q  c #7F4133",
"!  c #61513A",
"~  c #61523A",
"^  c #64533A",
"/  c #64533B",
"(  c #64543A",
")  c #64543B",
"_  c #67563B",
"`  c #68563B",
"'  c #68563C",
"]  c #6A583C",
"[  c #6B583C",
"{  c #6E5A3C",
"}  c #6E5A3D",
"|  c #715C3D",
" . c #715D3D",
".. c #745F3E",
"X. c #755F3E",
"o. c #77613E",
"O. c #78613E",
"+. c #78613F",
"@. c #7A633F",
"#. c #7B633F",
"$. c #7E653F",
"%. c #7E6540",
"&. c #804133",
"*. c #824133",
"=. c #824233",
"-. c #854233",
";. c #874333",
":. c #8A4333",
">. c #8C4433",
",. c #8D4433",
"<. c #8F4433",
"1. c #8F4434",
"2. c #924533",
"3. c #944533",
"4. c #924534",
"5. c #944534",
"6. c #954534",
"7. c #974634",
"8. c #994634",
"9. c #9A4634",
"0. c #9A4734",
"q. c #9C4734",
"w. c #9D4734",
"e. c #9F4834",
"r. c #A14834",
"t. c #A24834",
"y. c #A44934",
"u. c #A74934",
"i. c #A94A34",
"p. c #AA4A34",
"a. c #AC4A34",
"s. c #AC4B34",
"d. c #AF4B34",
"f. c #AF4B35",
"g. c #B14B34",
"h. c #B14B35",
"j. c #B14C34",
"k. c #B14C35",
"l. c #B24C34",
"z. c #B44C34",
"x. c #B44C35",
"c. c #B64C35",
"v. c #B74C35",
"b. c #B64D35",
"n. c #B74D35",
"m. c #B94D35",
"M. c #BC4E35",
"N. c #BE4E35",
"B. c #BF4E35",
"V. c #C14F35",
"C. c #C34F35",
"Z. c #C44F35",
"A. c #C65035",
"S. c #C95035",
"D. c #CB5135",
"F. c #CC5135",
"G. c #CE5135",
"H. c #CE5235",
"J. c #D15235",
"K. c #D35335",
"L. c #D45335",
"P. c #D65336",
"I. c #D95436",
"U. c #816740",
"Y. c #816840",
"T. c #846941",
"R. c #846A41",
"E. c #856A41",
"W. c #876C41",
"Q. c #886C41",
"!. c #886C42",
"~. c #8B6E42",
"^. c #8E7043",
"/. c #917243",
"(. c #917244",
"). c #947444",
"_. c #957444",
"`. c #947544",
"'. c #957544",
"]. c #987745",
"[. c #9B7945",
"{. c #9E7B46",
"}. c #A17D46",
"|. c #A17D47",
" X c #A27D47",
".X c #A47F47",
"XX c #A57F47",
"oX c #A58047",
"OX c #A88148",
"+X c #A88248",
"@X c #AB8448",
"#X c #AB8449",
"$X c #AE8649",
"%X c #B1884A",
"&X c #B2884A",
"*X c #B48A4A",
"=X c #B58A4A",
"-X c #B58B4A",
";X c #B88C4B",
":X c #B88D4B",
">X c #BB8F4B",
",X c #BB8F4C",
"<X c #BE914C",
"1X c #BF914C",
"2X c #C1934D",
"3X c #C2934D",
"4X c #C5954D",
"5X c #C5954E",
"6X c #C8974E",
"7X c #C8984E",
"8X c #CB994F",
"9X c #CB9A4F",
"0X c #CE9C4F",
"qX c #CF9C4F",
"wX c #CF9C50",
"eX c #D19E50",
"rX c #D29E50",
"tX c #D5A050",
"yX c #D5A051",
"uX c #D8A251",
"iX c #D8A351",
"pX c #DBA452",
"aX c #DBA552",
"sX c #DCA552",
"dX c #DEA752",
"fX c #DFA752",
"gX c #E2A953",
"hX c #E5AB53",
"jX c #E5AB54",
"kX c #E8AD54",
"lX c #E8AE54",
"zX c #EBAF55",
"xX c #EBB055",
"cX c #ECB055",
"vX c #EEB255",
"bX c #EFB255",
"nX c #EFB256",
"mX c #F2B456",
"MX c #F5B657",
"NX c #F8B857",
"BX c #FBBA58",
"VX c #FCBB58",
"CX c #FFBD59",
/* pixels */
"                                                                                                                                                                ",
"        % ! %.%.@.A         $ .X4X..    7 {.~.$       Z ] ! X       } ].#.    X U..XF   7 U.$             + 4.B   < t.:.+   # Q x .           > V =.t           ",
"      }.NXCXCXCXCXBX[.      @XCXCXCX!   @XCXCX>X  X $XCXCXCXjXZ   } CXCXCX%X  =XCXCX$X  @XCX!.  rXmXA     -.I.u.  c.I.I.2.@ Z.I.I.E       . 7.I.I.I.I.i.+       ",
"    [ CXCXCXCXCXCXCXCXU     fXCXCXCXXX  !.CXCXkX  %.CXCXCXCXCX{.  $XCXCXCXCXU CXCXCX&X  ).CX} I CXCXI     7.I.q , I.I.I.V.b I.I.I.i.      <.I.I.I.I.I.I.u.      ",
"    #.CXCXCXCXCX<X=XCX~.    jXCXCXCX{.  X iXCX#X  /.CXCXCXCXCX^.  ].CXCXCXCX/.5XCXCXmX).gXCX<XtXCXBX      p P.C.A.I.I.I.g.B I.I.I.e.    @ K.I.I.I.I.I.I.I.0     ",
"    7 mXCXCXVXU.    +X&X    kXCXCXVXK     +XgXX   [ CXlX4X&X%.    A MXCXCXCX].$ ].rXjX9X9X,X0XmXCXCX[       p y.N.J.I.I.h e I.I.I.N     u I.I.I.I.I.I.I.I.n     ",
"      K +X@X!       Z NX| $.CXCXCX!.  Z ].BXMXF   | 5XX   7 ^./.F   ~ MXCXCX!.      Z X       O ~.CXMXH           # I.<.  # I.I.Z.o     w I.J.h 5.I.I.I.I.0     ",
"                      kXCXCXVX7X) 7 >XCXCXCXCXNX2XvX%.  G zXCXCXBX@X$ X.CXCX_     %XCXtX  6 o.&   +XCX%X  + w +   n S..   h I.I.u B N.u.o S.t.  . d.I.P.&.      ",
"      O G             jXCX&X7   7 gXCXCXCXCXCXCXCXCX7XU rX=XgXCXCXCX).  gXCX)   6 CXCXVXO qXCXaX  _ CXgX# S.I.I.A.I.I.q.q.K.I.M.  S.I.I.r Q c.    . r h >       ",
"    U zXCXtXF       U CXuX      >XCXCXCXCXCXCXCXCXCXCXCX+.  $ +XCXCX].  gXCX^.  o.NX9XU.  5XCXCX& ~.CXuX5 I.I.I.S.Z.A.I.I.I.I.a.  , ;.P.f u I.y.n R V.I.P.f     ",
"    7XCXCXCXvX#.$ _ zXCXnX7   6 CXCXCXCXCXCXCXCXCXCXCXnX        K ..X L CXCXMX{.zX).      F VXE.7 kXCX%.  w c y *     # C A.I.V.      7.n.t.I.I.I.I.I.I.I.W     ",
"    gXCXCXCXCXCXCXCXCXCXCXfX& S CXCXCXCXCXVXnXCXCXCXCX9X    U.9X}.P _ gXCXCXCXCXCXaXZ     [ CX{.vXNX~.    @ S.I.I.A.>.*   # x.I.C   . x.I.I.I.I.I.I.I.I.l.@     ",
"    ,XCXCXCXCXCXCXCXCXNXCXCX+X  yXCXCXgX%.O   #.CXCXCX4X    uXCXCXCXmX#X} F S H +.:XNXuXkXCX3X~...&       @ L.I.I.I.I.S.9   : L.I.m.A.I.I.m.i.0.0.7.W i         ",
"    U VXCXCXCXCXiXO.$   ` xXaX  & !.[ X         4XCXCX@X    F $X3X!.$               F wXCX!.    a =.i       p y.f.k.I.I.V.    e.I.I.P.<.*                       ",
"       .gXmX7X+.          /.mX                  ].CXCXE.                              & NX}   h I.I.I.y.+           =.I.I.q   -.I.I.h         . b d.Z.q.-       ",
"        A ) P             [.CX$                 3XCXVX7     K %.T...P X               & NX).  2.I.I.I.I.u..         g I.I.0   <.I.d.        - j.I.I.I.I.M..     ",
"      !.CXCXCXvXOX/ $ $ ^.BXCXo.              ~ CXCX'.  6 4XCXCXCXCXCXMX4X/./ 7     L 8XCX%.  , B.I.I.I.I.2.      + b.I.n.. o A.I.y.      f D.I.I.n.P.I.I.w     ",
"    & BXCXCXCXCXCXCXCXCXCXCXCXzXF           ) zXVX'.    >XCXCXCXCXCXCXCXCXCXCXCXBXMXCXVX'.        i y.I.I.I.a.d b M.P.0.* . 8.I.I.P.:.V d.I.I.I.A.  -.I.I.w     ",
"    Y CXCXCXCXCXCXCXCXCXCXCXCXCXmX`.J A | :XCX&XF       BXCXCXCXCXCXCXCXCXCXCXCXCXCXxXL $ {.aXdX;X{   q A.I.I.I.I.Z.3 + E V.I.I.I.I.I.I.I.M x.I.K.* # A.A.o     ",
"    6 CXCXCXCXCXCXCXCXCXCXCXCXCXCXCXCXCXCXCXX.          xXCXCXCXCXCXgX!.H Z [ jXCXNXK   =XCXCXCXCXCXyXK * A.I.I.I.a + N.I.2.g J.I.I.I.I.I.o y I.I.7.  o +       ",
"      :XCXCXCXCXCXCXCXCXCXCXMXrX9XlXCXCXCX0X            [ xXCXCXqXO.X         Y CX X    BXCXCXCXCXCXCXMX~ q P.I.I.. j I.I.w   N.P.i w P.I.:.+ L.I.v.  # o       ",
"      $ -XCXCXCXCXCXCXaX[.~ X     X $XCXCXdXX             X S 6                 CXF     rXCXCXCXCXCXCXCXmXZ :.I.I.q 5 P.I.q q I.M.    Z.I.K.  f 0.q 7.I.V.#     ",
"          F E.].'...8               U CXCXCXhX9XuXjXtX+X^                     6 yX      6 #XlXCXCXCXCXCXCX%X+ A.I.b.# 5 w > N.I.P.3   2.I.s.    - k.I.I.I.V     ",
"          % ..%.@.J                 %.CXCXCXjX3X&X&X6XcXCXpX%.X               {.%.              O L +XCXCXNX$ s P.I.J.u.y.P.I.I.I.G.E 2 q - y <.G.I.I.I.I.g     ",
"        E.MXCXCXCXCXkX$X] O       U zXCX3XI             F oXVXkX/.A       & [.3XX } eXdX@XF           @XCXCX!   g A.I.F.y.W n -.F.I.I.I.I.I.I.I.I.I.I.I.e..     ",
"      ) CXCXCXCXCXCXCXCXCXBXuX9XdXCXCX^.                    %.CXCXCXhX9XtXkX'.X A BXCXCXCXNX^.        U.CXCX)                   * N.I.I.I.m.W n B -.W w         ",
"      :XCXCXCXCXCXCXCXCXCXnXNXCXCXCX-X                        cXCXCXnX$X` X     ) CXCXCXCXCXCX9X!   J fXCXCX&     h i.z.1.:       i I.I.y..         - d o       ",
"      ,XCXCXCXCXCXCXCXrX)   Z MXCXCXH                       X zXVX/.O           X sXCXCXCXCXCXCXCXCXCXCXCX4X    h I.I.I.I.J.f     + I.I.q         n K.I.N.#     ",
"      ! VXCXCXCXCXmXR.X     O MXCXkX          O { /.W.] A D +XVX~       %.MXzX^.  7 6XCXCXCXCXCXCXCXCXCXNXL     e.I.I.I.I.I.P.h   h I.I.0       R I.I.I.I.E     ",
"        L =X0X3X~.&         ).CXCXjX        } zXCXCXCXCXCXCXCX$X        xXCXCXCX].    ) <XCXCXCXCXCXCXMX .      =.I.I.I.I.I.I.P.d.K.I.I.k.9 q 0.I.I.I.I.I.f     ",
"                            kXCXCXCXO     ) BXCXCXCXCXxX<XuXCX!.        5XCXCXCXBXK       } MXCXVX5X'.7         o -.0.:.B -.A.I.I.I.I.I.I.P.a.W f u h n 5       ",
"        O $.+X@XT.7       6 CXCXCXCXI     pXCXCXCXCX3X$     ^.4X        X O.xXCXCX2X        ' CX)                           * Z.I.I.I.I.w.a ;.m.D.Z.t.y         ",
"      G gXCXCXCXCXNX].X     MXCXCXCX)   G CXCXCXCXCXZ         qX].X         +XCXCXCX}         aXZ         < i.2.+             E I.I.P.x -.P.I.I.I.I.I.P.l       ",
"    X gXCXCXCXCXCXCXCX>X    (.CXCXnX$   ) CXCXCXCXnX          |.CXkX;X].[.2XBXCXCXCXzXG     6 MXjX| X     v.I.I.k.+           N I.P.h 9.I.I.I.I.I.I.I.I.S.      ",
"    ..CXCXCX[.) #.gXCXCX).    ~ U.A     L CXCXCXCXjX        7 xXCXCXkXCXCXCXCXCXCXCXCXNX@X{.jXCXCXCXkX%.  J.I.I.I.k.-       . d.I.,.f I.I.I.I.I.I.I.I.I.I.:     ",
"    [.CXCXiX  O 6 Z NXCXBXP               gXCXCXCXaX      $ tXCXCX)   {.CXCXCXfXO.{.nXCXCXCXCXCXCXCXCXCX..i.I.I.I.I.G.1.g B b.I.G.@ y.I.I.I.I.I.I.I.I.I.I.,     ",
"    '.CXCXCXeXMXBXA <XCXCXuXX             ) NXCXCX/.    X 2XCXCX0X    S CXCXCXE.    O #.$X0XjX0X$X| ` VXqX9 J.I.I.I.I.I.I.I.I.I.:.  m.I.I.I.I.I.I.I.I.I.S.      ",
"    F VXCXCXCXCXCXF 7XCXCXCX].              F ~.[     O >XCXCXCX5X      NXCXCXR.                      rXMX  q n.I.I.G.7.g x N.I.q   y.I.P.y.h.I.I.I.I.P.f       ",
"      +.MXCXCXCX{.7 NXCXCXCXBX_                     7 rXCXCXCXCXBX~     &XCXMXF   A ).^.A             yXCX      * , .       s I.+   R I.R     z Z.G.i.w         ",
"        Z E.].) X 4XCXCXCXCXCXMX}                 U.vXCXCXCXCXCXCXMX^.O   U 7   X kXCXCXNX].X       L BXCX      @           x I.#   i I.:                       ",
"              O >XCXCXCXCXCXCXCXCX<X_ $   X J ~.pXCXCXCXmX[.) } 3XCXCXvX$XP     Z CXCXCXCXCXpX#.L U.zXCXuX  # g.I.G.C       m.I.Q   s I.h                       ",
"            A tXnX%.O X } VXCXCXCXCXCXCXCXCXCXCXCXCXCXjXA         $XCXCXCXCX0XG   gXCXCXCXCXCXCXCXCXCXCXX.  =.I.I.I.I.h   # I.I.I.i.V.I.A.B n h @   =.a.r       ",
"          T.MXmXH       O bXVX$XE.[.fXCXCXCXCXCXCXCXCXU           & NXCXCXCXCXMXK ~ nXCXCXCXCXCXCXCXmX%.    &.I.I.I.I.N.    V.I.I.I.I.S.F.I.I.I.5.c I.I.V.      ",
"      $ >XCXCXR.      L 0XVX[       X !.NXCXCXCXCXCX7X              9XCXCXCXCXCXdXX & Y.+X:X9X,X+X%.&       - J.I.I.I.I.0   u I.I.I.i.. o -.P.I.k 7.I.I.I.-     ",
"      2XCXCXlXX X #.eXCXCX{.  } tXjX<XK ~ MXCXCXCXCX[.              <XCXCXCXCXCXCXo.                    * x < r F.I.I.I.V     M.I.I.7.    . < >   0.I.I.I.u     ",
"    Z CXCXCX%.Z dXCXCXCXmX& L BXCXCXCXMXK %.CXCXCXCX[.              dXCXCXCXCXCXCX$X        9 w .     q J.I.I.;.- s.I.I.h.  . Z.I.I.I.d.a.K.K.1   ;.I.I.I.q     ",
"      &XjX'.  :XCXCXCXCX~.  &XCXCXCXCXCX<X  fXCXCXCX:X            _ CXCXCXCXCXCXCX9X      -.I.I.C.q   a.I.I.I.I.:   -.I.I.a.x.I.;.q N.I.I.I.I.>   ,.I.I.J..     ",
"              rXCXCXCX:X    uXVX+.].CXCXjX  |.CXCXCXnXX         & jXCXCXCXCXCXCXCX<X      v.I.I.I.A.+ N.I.I.I.I.u     :.I.I.I.I.s   * d.I.L.-.    c.I.I.6.      ",
"              Y 3X<X .      jX4X  S CXCXrX  ].CXCXCXCX%.        XXCXCXCXCXCXCXCXCX~.      x I.I.I.I.h -.I.I.I.I.r     . V.I.I.I.x.@     * +   . :.I.I.F.-       ",
"                            jXuX    +X,XF   4XCXCXCXCXkX$       gXCXCXCXCXCXCXCXnX&         S.I.I.I.n o n.I.I.I.:       ,.I.I.I.I.S.5.=.n n :.N.I.I.G.r         ",
"      Z OX>XT.O           X mXCX_         _ BXCXCXCXCXCX2X      9XCXCXCXCXCXCXVX}         3 J.I.I.I.0   , L.I.I.:       -.I.I.I.I.I.I.I.I.I.I.I.L.e.: .         ",
"    X jXCXCXCXgX[         ~.CXCXMX~.J J ).NXCXCXCXCXCXCXCX.X    I MXCXCXCXCXxX[     . E z.I.I.I.I.6.      y.I.I.i       y.I.i.f @     @ , u u r o * A.G.g       ",
"    I CXCXCXCXCXCXtX{.[.6XCXCXCXCXCXCXCXCXCXCXwXK F -XCXCXCX.X    Z ].=X$XY.O       =.I.I.I.I.S.C         u.I.I.N.> + -.I.&.      > *.u.A.I.V.;.. E I.I.S.      ",
"    8 VXCXCXCXCXCXCXCXCXCXCXCXCXCXCXCXCXCXCXMX7       4XCXCXCX.X                    f.I.I.I.u.o       @ :.I.I.I.I.I.I.I.x.    * r.I.I.I.I.I.I.I.Q R I.I.I.:     ",
"      E.VXCXCXCXNX<X%.F   $ 5XCXCXCXCXCXCXCX<X        ) CXCXCXCX].                  7.I.I.I.s       C G.I.I.I.I.i.Z.I.I.-.  < S.I.I.I.I.I.I.I.I.f.f I.I.I.:     ",
"        Z #.!.[ O         Z aXCXCXCXCXCXCXCX#X        O CXCXCXCXBXU         0 E a   @ l.I.I.k.r y i.J.k.u.L.I.I.  , P.I.-.. m.I.I.I.I.I.I.I.I.I.n , I.I.I.+     ",
"            % ( %.%.~.].>XNXCXCXCXCXCXCXCXCX<X          NXCXCXCXCX7X      C I.I.I.;.  . W L.I.I.I.R o     - S.I.T   w.I.N i I.I.I.a.-.W -.5.,.r   q I.I.B.      ",
"        K 2XBXCXCXCXCXCXCXqX| S K -XCXCXCXCXxXX         jXCXCXCXCXCX6   - K.I.I.I.P.3     g I.I.x.          ,.I.P.< + h . =.I.P.h               - k.I.I.=.      ",
"      U MXCXVX,X4XCXCXCXoX        H CXCXCXCXCX..        fXCXCXCXCXCX)   R I.I.I.I.I.u.      S.I.K.m V ;.,   b I.I.h       B I.e.      . >.A.I.I.I.I.I.N.+       ",
"    X dXCXCX)     %XCXrXX       H tXkXmXCXCXCXjX$       ,XCXCXCXCXCXL   &.I.I.I.I.I.I.;.o 9 K.F.F.I.I.I.d.  . :.:..       * L.6.    . r.I.I.I.I.I.P.y.*         ",
"    { CXCXrX      [.CX..    7 %XmX)   O [.CXCXCX2XX      .CXCXCXCXyX    0 P.I.I.I.I.I.I.I.I.=..   g m.I.;.  - B 2.5.E 4     t.G.r # q.G.=.i u n i @             ",
"    +XCXCX6X      7XCXS   U vXCX[.        3XCXCXCX4X&     +XCXCXsXF       p x.I.I.I.I.I.I.h.          + + 3.P.I.I.I.I.I.i.i n.I.I.I.L.3     . d Q v -           ",
"    9XCXCXgX    6 BXCXK   gXCXCXQ.        #.CXCXCXCXjX}     K I X             @ 3 s -.A.I.C     =     + k.I.I.y.h 0 i ,.G.I.I.I.I.I.7.    s A.I.I.I.P.q.+       ",
"    9XCXCXCX8   ~.CXCXU.  CXCXCX<X        } CXCXCXCXCXCX6XL                   : m.q.# + x.u   q.I.9.  5.I.S.u           : N.I.I.I.I.h   r P.I.I.I.I.I.I.i.      ",
"    6XCXCXCX_   5XCXCX&X  fXCXCXMX        {.CXCXCXmXjXMXCXCX4X)               n I.I.k.o B :.N I.I.H.1 I.P.q               * A.I.I.I.u   M.I.I.I.I.I.I.I.I.o     ",
"    +XCXCXCXO.  jXCXCX3X  } VXCX3X      7 mXCXnX .    X  .jXCXCX9X)           # M.I.I.G.K.I.I.I.P.B -.I.4.        B m.D.x.i n I.I.I.u r I.I.I.I.I.I.I.I.h.      ",
"    ~ CXCXmX6   XXCXVX`     A ) X     $ 0XCXCX/.    & ) O 7 fXCXCXCX>XZ         . q R S.I.I.G.;.*   u.I.y       ,.I.I.I.I.P.0 L.I.I.u ;.I.I.I.I.I.I.F.7.#       ",
"       .@XI       I Z               P uXCXCXCX~.  7 fXCXrX  I CXCXCXCXvX)             < P.L.<       f.I.:     r I.P.=.x Z.I.:.Z.I.I.< d.I.I.u.g , +             ",
"        & T.>X9X9X9X*X.X].%.%.W.|.tXCXCXmXVXCXNX;XkXCXCXCXS   <XCXCXCXCXBX|       d <   y.y.        e.I.h   . z.I.e.    q I.-.V.I.J.+ K.I.2.      - g *         ",
"      G kXCXCXMXrX9XfXCXCXCXCXCXCXCXCX^.  $ @XCXCXCXCXCXmX$   +.CXCXCXCXCXMX7   g I.P.n B y.        =.I.S.W a.I.I.m..     F.i y.I.W i I.Z..     + D.I.G.q       ",
"    O jXCXCX{.O       6 ^.MXCXVX7XaXCXS       oXCXCXCXCXE.    F CXCXCXCXCXCX|.  5 I.I.M.i J.o       n I.I.I.I.e.p.I.9.  + I.o o ,   y.I.<.      : I.I.I.N.      ",
"    %.CXCXCXX $ }.dX@X6   [ CXY.    1X~.      X ^.0X,X! % $   S CXCXCXCXCXCXfX    u.I.N.u I.;.      E I.I.I.I., . B.I.0 N I.+     g I.I.;.      . J.I.I.I.<     ",
"    $XCXCXCX&XjXCXCXCX3X    mXo.    Z mX~             /.NXMXA ) CXCXCXCXCXCXBX    4.I.-.s I.I.-.o : A.I.I.I.I.7.. < e., D.I.2.+ N V.e.P.x.        Z.I.I.I.r     ",
"    &XCXCXCXCXCXCXCXCXjX  7 CXrX      4XMX$.      $ %XCXCXCX! %.CXCXCXCXCXCXlX  @ D.V.o 2.I.I.I.I.I.I.y g.I.I.I.z.*   7.I.P.k.G.M.*   e.I.Q     i I.I.I.L.@     ",
"    E.CXCXCXCXCXCXCXCX-X  ].CXCX..    [ CXCXgX*X>XmXCXCXCXsXO U CXCXCXCXCXCX+X  E I.z.<.I.F.&.V.I.I.I.  C I.I.I.I.4.o K.I.p.      @ j D.I.I.N.z.I.I.I.I.,.      ",
"    X wXCXCXCXCXCXCXfX&   9XCXCX&X      /.CXCXCXCXCXCXCX,X7     oXCXCXCXCXfX&   :.I.I.I.I.p   f I.I.G.  o M.I.I.I.,.* I.I.K.*   1 K.I.M.i 0.P.I.I.I.I.0..       ",
"      O ].jXCXCXxX{.$      .mXNXX.        ) <XnXVXfX$XU           ..<X6X_.$     : A.I.J.N       ,.m.g     * t.Z.u.#   q.I.J.:   + ,.q.p     : W 7.-.q           ",
"            & &               X                                                   o 0 +                                 ; @                                     ",
"                                                                                                                                                                ",
"                                                                                                                                                                "
};
