/* XPM */
static char *result[] = {
/* columns rows colors chars-per-pixel */
"80 80 199 2 ",
"   c #313131",
".  c #323331",
"X  c #323232",
"o  c #333632",
"O  c #343434",
"+  c gray21",
"@  c #343932",
"#  c #353B33",
"$  c #373E33",
"%  c #373E34",
"&  c gray22",
"*  c #3A3A3A",
"=  c #3C3C3C",
"-  c gray24",
";  c #3F3F3F",
":  c #384034",
">  c #384134",
",  c #394335",
"<  c #3A4635",
"1  c #3A4636",
"2  c #3B4836",
"3  c #3C4836",
"4  c #3D4B36",
"5  c #3D4B37",
"6  c #3E4D37",
"7  c #3E4E37",
"8  c #3F5038",
"9  c #405338",
"0  c #405339",
"q  c #415539",
"w  c #425539",
"e  c #415639",
"r  c #435839",
"t  c #43583A",
"y  c #445A3A",
"u  c #445B3A",
"i  c #455D3B",
"p  c #455E3B",
"a  c #46603B",
"s  c #47623C",
"d  c #47633C",
"f  c #48623C",
"g  c #48633C",
"h  c #49653C",
"j  c #49653D",
"k  c #4A683D",
"l  c #4B6A3E",
"z  c #4B6B3E",
"x  c #4C6D3E",
"c  c #4E6F3F",
"v  c #4D703F",
"b  c #4E703F",
"n  c #4F723F",
"m  c #4F733F",
"M  c #414141",
"N  c #434343",
"B  c gray27",
"V  c #464646",
"C  c gray28",
"Z  c #484848",
"A  c #494949",
"S  c gray29",
"D  c #4C4C4C",
"F  c #4E4E4E",
"G  c #505050",
"H  c #515151",
"J  c gray32",
"K  c #535353",
"L  c gray33",
"P  c #555555",
"I  c gray34",
"U  c gray35",
"Y  c #5B5B5B",
"T  c gray36",
"R  c #5D5D5D",
"E  c gray37",
"W  c #5F5F5F",
"Q  c #4F7240",
"!  c #507540",
"~  c #517741",
"^  c #517841",
"/  c #527A41",
"(  c #537D42",
")  c #547D42",
"_  c #557F42",
"`  c #557F43",
"'  c #606060",
"]  c #626262",
"[  c #646464",
"{  c gray40",
"}  c #676767",
"|  c #686868",
" . c DimGray",
".. c gray42",
"X. c #6D6D6D",
"o. c #6F6F6F",
"O. c gray44",
"+. c #717171",
"@. c #727272",
"#. c gray45",
"$. c #747474",
"%. c #767676",
"&. c gray47",
"*. c gray48",
"=. c #7B7B7B",
"-. c #7C7C7C",
";. c gray49",
":. c #7E7E7E",
">. c gray50",
",. c #558042",
"<. c #558043",
"1. c #568243",
"2. c #578544",
"3. c #588744",
"4. c #598A45",
"5. c #5A8A45",
"6. c #5B8C45",
"7. c #5B8D45",
"8. c #5B8D46",
"9. c #5C8F46",
"0. c #5D9246",
"q. c #5D9247",
"w. c #5E9447",
"e. c #5F9447",
"r. c #5E9547",
"t. c #5F9748",
"y. c #609748",
"u. c #619948",
"i. c #619A48",
"p. c #619A49",
"a. c #629C49",
"s. c #629D49",
"d. c #639F4A",
"f. c #64A14A",
"g. c #65A14A",
"h. c #64A24A",
"j. c #65A44B",
"k. c #66A44B",
"l. c #67A74B",
"z. c #68A94C",
"x. c #68AA4C",
"c. c #69AC4C",
"v. c #69AC4D",
"b. c #6AAF4D",
"n. c #6BAF4D",
"m. c #6BB14E",
"M. c #6CB14E",
"N. c #6CB24E",
"B. c #6DB44E",
"V. c #6EB64F",
"C. c #6EB74F",
"Z. c #6FB94F",
"A. c #6FB950",
"S. c #70BC50",
"D. c #71BC50",
"F. c #71BE51",
"G. c #72BE51",
"H. c #72BF51",
"J. c #73C151",
"K. c #74C352",
"L. c #74C452",
"P. c #75C652",
"I. c #75C653",
"U. c #76C953",
"Y. c #77C953",
"T. c #78CB54",
"R. c #78CC54",
"E. c #79CE54",
"W. c #7AD155",
"Q. c #7BD355",
"!. c #7BD455",
"~. c #7CD656",
"^. c #7ED957",
"/. c #818181",
"(. c #838383",
"). c gray52",
"_. c #868686",
"`. c gray53",
"'. c #888888",
"]. c #898989",
"[. c gray54",
"{. c gray55",
"}. c #8E8E8E",
"|. c #909090",
" X c gray57",
".X c #929292",
"XX c #939393",
"oX c gray58",
"OX c #959595",
"+X c #979797",
"@X c gray60",
"#X c #9B9B9B",
"$X c gray61",
"%X c #9D9D9D",
"&X c gray62",
"*X c #A0A0A0",
"=X c #A2A2A2",
"-X c #A4A4A4",
";X c gray65",
/* pixels */
"                                                                                                                                                                ",
"        & D R R Y ;         + @.).I     = o.[ +       - H D X       K ..Y     X E @.M   = E +             @ q.!   5 h.4.@   % _ x .           3 ~ 1.y           ",
"      O.=X;X;X;X;X-XX.      %.;X;X;XD   %.;X;X>.  X &.;X;X;X+X-   K ;X;X;X*.  =.;X;X&.  %.;X]   {.&X;     2.^.l.  V.^.^.0.# L.^.^.)       . y.^.^.^.^.z.@       ",
"    J ;X;X;X;X;X;X;X;XS     XX;X;X;X@.  ] ;X;X@X  R ;X;X;X;X;Xo.  &.;X;X;X;XS ;X;X;X*.   .;XL Z ;X;XA     t.^.9 3 ^.^.^.J.v ^.^.^.z.      9.^.^.^.^.^.^.l.      ",
"    Y ;X;X;X;X;X/.-.;X[     +X;X;X;Xo.  X |.;X%.  | ;X;X;X;X;X{   ..;X;X;X;X} ).;X;X&X .OX;X/.}.;X-X      p ~.K.P.^.^.^.M.! ^.^.^.d.    # Q.^.^.^.^.^.^.^.8     ",
"    = &X;X;X-XE     $.*.    @X;X;X-XB     $.OXX   J ;X@X).*.R     ; *X;X;X;X..+ ..{.+X].].>.[.&X;X;XH       p k.G.W.^.^.k e ^.^.^.Q     u ^.^.^.^.^.^.^.^.b     ",
"      B $.%.D       - =XP T ;X;X;X]   - ..-X*XM   P ).X   = { } M   D *X;X;X]       - X       O [ ;X*XN           % ^.9.  % ^.^.L.o     w ^.W.k w.^.^.^.^.8     ",
"                      @X;X;X-X`.F = >.;X;X;X;X=X(.$XR   N #X;X;X-X%.+ I ;X;XG     *.;X}.  * U &   $.;X*.  @ w @   v Y..   k ^.^.u ! G.l.o U.h.  . b.^.~.<.      ",
"      O N             +X;X*.=   = OX;X;X;X;X;X;X;X;X`.S {.-.OX;X;X;X .  OX;XF   * ;X;X-XO [.;X.X  G ;XOX% U.^.^.P.^.^.a.a.Q.^.D.  U.^.^.t ` V.    . r k 3       ",
"    S #X;X}.M       S ;X|.      >.;X;X;X;X;X;X;X;X;X;X;XU   + $.;X;X..  OX;X{   U =X].E   ).;X;X& [ ;X|.7 ^.^.^.Y.L.I.^.^.^.^.v.  3 3.~.g u ^.k.b / J.^.~.d     ",
"    `.;X;X;X$XY + G #X;X%X=   * ;X;X;X;X;X;X;X;X;X;X;X%X        B I X C ;X;X*Xo.#X .      M -X' = @X;XR   q x u :     % ^ P.^.J.      y.C.h.^.^.^.^.^.^.^.)     ",
"    OX;X;X;X;X;X;X;X;X;X;XXX& ; ;X;X;X;X;X-X%X;X;X;X;X].    E '.O.Z G OX;X;X;X;X;X.X-     H ;Xo.$X=X[     # U.^.^.I.6.:   % B.^.^   . B.^.^.^.^.^.^.^.^.N.#     ",
"    >.;X;X;X;X;X;X;X;X=X;X;X$.  }.;X;XOXR O   Y ;X;X;X).    |.;X;X;X&X%.L M ; N U :.=X|.@X;X(.[ I &       # !.^.^.^.^.U.8   < !.^.Z.I.^.^.A.z.p.p.t.) i         ",
"    S -X;X;X;X;X|.U +   G #X.X  & ] J X         ).;X;X%.    M &.(.] +               M [.;X]     a 1.i       p k.n.M.^.^.J.    d.^.^.~.9.:                       ",
"      P OX&X`.U           | &X                  ..;X;X'                               & =XL   k ^.^.^.k.@           1.^.^.9   2.^.^.k         . v b.L.a.,       ",
"        ; F Z             X.;X+                 (.;X-X=     B R ' I Z X               & =X .  q.^.^.^.^.l..         j ^.^.8   9.^.b.        , m.^.^.^.^.S..     ",
"      ] ;X;X;X$X$.F + + { -X;XU               D ;X;X .  * ).;X;X;X;X;X*X).} F =     C '.;XR   2 H.^.^.^.^.q.      @ V.^.C.. o I.^.k.      d T.^.^.C.~.^.^.w     ",
"    & -X;X;X;X;X;X;X;X;X;X;X;X#XM           F #X-X .    >.;X;X;X;X;X;X;X;X;X;X;X-X*X;X-X .        i k.^.^.^.v.s v S.~.i.: . u.^.^.~.4.~ b.^.^.^.I.  2.^.^.w     ",
"    S ;X;X;X;X;X;X;X;X;X;X;X;X;X&X .B ; P ;.;X*.M       -X;X;X;X;X;X;X;X;X;X;X;X;X;X#XC + o..XXX;.K   9 P.^.^.^.^.L.7 @ ) J.^.^.^.^.^.^.^.m B.^.Q.: % P.P.o     ",
"    * ;X;X;X;X;X;X;X;X;X;X;X;X;X;X;X;X;X;X;XI           #X;X;X;X;X;XOX] N - J +X;X=XB   =.;X;X;X;X;X}.B : P.^.^.^.a @ G.^.q.j W.^.^.^.^.^.o u ^.^.y.  o @       ",
"      ;.;X;X;X;X;X;X;X;X;X;X*X{.].@X;X;X;X[.            J #X;X;X[.U X         S ;X+.    -X;X;X;X;X;X;X*XD 9 ~.^.^.. l ^.^.w   G.~.i q ~.^.5.@ !.^.C.  $ o       ",
"      + -.;X;X;X;X;X;X.XX.D X     X &.;X;XXXX             X ; *                 ;XM     {.;X;X;X;X;X;X;X&X- 5.^.^.9 7 ~.^.9 9 ^.S.    L.^.Q.  d p.9 y.^.J.%     ",
"          M ' .. .I =               S ;X;X;X+X'.|.+X}.$.F                     * }.      * %.@X;X;X;X;X;X;X*.@ P.^.V.% 7 q 2 G.^.~.7   q.^.v.    , m.^.^.^.~     ",
"          & I R Y B                 T ;X;X;X+X(.*.*.`.#X;X XT X               o.R               O C $.;X;X=X+ a ~.^.W.l.j.~.^.^.^.E.) 6 0 , u 9.E.^.^.^.^.j     ",
"        ' *X;X;X;X;X@X&.H O       S #X;X(.Z             M #.-X@X| ;       & X.(.X K {.XX%.M           %.;X;XD   j I.^.R.k.) b 2.R.^.^.^.^.^.^.^.^.^.^.^.d..     ",
"      F ;X;X;X;X;X;X;X;X;X-X|.'.XX;X;X{                     R ;X;X;X+X'.}.@X .X ; -X;X;X;X=X{         E ;X;XF                   : G.^.^.^.Z.) b ! 2.) q         ",
"      ;.;X;X;X;X;X;X;X;X;X%X=X;X;X;X-.                        #X;X;X%X&.G X     F ;X;X;X;X;X;X'.D   B XX;X;X&     k z.B.9.<       i ^.^.k..         , s o       ",
"      >.;X;X;X;X;X;X;X{.F   - *X;X;XN                       X #X-X} O           X .X;X;X;X;X;X;X;X;X;X;X;X).    k ^.^.^.^.W.d     @ ^.^.9         v Q.^.G.%     ",
"      D -X;X;X;X;X&X' X     O *X;X@X          O K } ] H ; M $.-XD       T *X#X{   = `.;X;X;X;X;X;X;X;X;X=XC     d.^.^.^.^.^.~.k   k ^.^.8       / ^.^.^.^.)     ",
"        C -.[.(.[ &          .;X;X+X        K #X;X;X;X;X;X;X;X&.        #X;X;X;X..    F /.;X;X;X;X;X;X*XP       1.^.^.^.^.^.^.~.b.Q.^.^.m.8 9 i.^.^.^.^.^.g     ",
"                            @X;X;X;XO     F -X;X;X;X;X#X/.|.;X]         ).;X;X;X-XB       K *X;X-X). .=         o 2.p.5.! 2.P.^.^.^.^.^.^.~.v.) g u k b 7       ",
"        O R $.%.' =       * ;X;X;X;XA      X;X;X;X;X(.+     { ).        X U #X;X;X(.        G ;XF                           : L.^.^.^.^.s.a 3.Z.T.L.h.u         ",
"      N OX;X;X;X;X=X..X     *X;X;X;XF   N ;X;X;X;X;X-         [...X         $.;X;X;XK         .X-         5 z.0.@             ) ^.^.~.x 2.~.^.^.^.^.^.~.l       ",
"    X OX;X;X;X;X;X;X;X>.    | ;X;X%X+   F ;X;X;X;X%X          +.;X@X;...X.(.-X;X;X;X#XN     * *X+XP X     C.^.^.m.@           Q ^.~.k i.^.^.^.^.^.^.^.^.U.      ",
"    I ;X;X;XX.F Y OX;X;X .    D E ;     C ;X;X;X;X+X        = #X;X;X@X;X;X;X;X;X;X;X;X=X%.o.+X;X;X;X@XR   W.^.^.^.m.,       . b.^.8.d ^.^.^.^.^.^.^.^.^.^.1     ",
"    X.;X;X|.  O * - =X;X-XZ               OX;X;X;X.X      + }.;X;XF   o.;X;X;XXXU o.%X;X;X;X;X;X;X;X;X;XI z.^.^.^.^.E.9.h ! V.^.E.# k.^.^.^.^.^.^.^.^.^.^.2     ",
"     .;X;X;X{.*X-X; /.;X;X|.X             F =X;X;X}     X (.;X;X[.    ; ;X;X;X'     O Y &.[.+X[.&.P G -X[.8 W.^.^.^.^.^.^.^.^.^.5.  Z.^.^.^.^.^.^.^.^.^.U.      ",
"    M -X;X;X;X;X;XM `.;X;X;X..              M [ J     O >.;X;X;X).      =X;X;X'                       {.*X  9 C.^.^.E.y.j x G.^.9   k.^.~.k.M.^.^.^.^.~.d       ",
"      U *X;X;X;Xo.= =X;X;X;X-XG                     = {.;X;X;X;X-XD     *.;X*XM   ;  .{ ;             }.;X      : 2 .       a ^.@   / ^./     z L.E.z.w         ",
"        - ' ..F X ).;X;X;X;X;X*XK                 E $X;X;X;X;X;X;X*X{ O   S =   X @X;X;X=X..X       V -X;X      #           x ^.%   i ^.1                       ",
"              O >.;X;X;X;X;X;X;X;X/.G +   X B [  X;X;X;X&XX.F L (.;X;X$X&.Z     - ;X;X;X;X;X.XY C E #X;X|.  % M.^.E.^       Z.^.`   a ^.k                       ",
"            ; }.%XR O X K -X;X;X;X;X;X;X;X;X;X;X;X;X;X+X;         &.;X;X;X;X[.N   OX;X;X;X;X;X;X;X;X;X;XI   1.^.^.^.^.k   % ^.^.^.z.J.^.P.! b k #   1.v.r       ",
"          ' *X&XN       O %X-X&.' X.oX;X;X;X;X;X;X;X;XS           & =X;X;X;X;X*XB D %X;X;X;X;X;X;X;X&XR     ,.^.^.^.^.G.    J.^.^.^.^.U.R.^.^.^.w.x ^.^.J.      ",
"      + >.;X;X'       C [.-XJ       X ] =X;X;X;X;X;X`.              '.;X;X;X;X;XXXX & E $.;.].>.$.R &       , W.^.^.^.^.8   u ^.^.^.z.. o 2.~.^.z t.^.^.^.,     ",
"      (.;X;X@XX X Y {.;X;Xo.  K }.+X/.B D *X;X;X;X;XX.              /.;X;X;X;X;X;XU                     : x 5 r R.^.^.^.~     D.^.^.y.    . 4 3   p.^.^.^.u     ",
"    - ;X;X;XR - XX;X;X;X&X& C -X;X;X;X*XB R ;X;X;X;XX.              XX;X;X;X;X;X;X&.        8 q .     9 W.^.^.3., v.^.^.M.  . L.^.^.^.b.c.Q.Q.5   3.^.^.^.9     ",
"      *.+X .  :.;X;X;X;X[   *.;X;X;X;X;X/.  oX;X;X;X;.            G ;X;X;X;X;X;X;X].      2.^.^.K.9   v.^.^.^.^.<   2.^.^.c.B.^.3.9 G.^.^.^.^.3   7.^.^.W..     ",
"              {.;X;X;X;.    |.-XU ..;X;X+X  +.;X;X;X%XX         & +X;X;X;X;X;X;X;X/.      C.^.^.^.P.@ G.^.^.^.^.u     5.^.^.^.^.a   : b.^.!.2.    V.^.^.r.      ",
"              S (./.P       +X).  ; ;X;X{.  ..;X;X;X;XR         @.;X;X;X;X;X;X;X;X[       x ^.^.^.^.k 2.^.^.^.^.t     . J.^.^.^.B.#     : @   . 5.^.^.R.,       ",
"                            +X|.    $.>.M   ).;X;X;X;X@X+       OX;X;X;X;X;X;X;X%X&         Y.^.^.^.b o C.^.^.^.1       7.^.^.^.^.U.w.1.b b 5.G.^.^.E.r         ",
"      - $.>.' O           X &X;XG         G -X;X;X;X;X;X(.      ].;X;X;X;X;X;X-XK         7 W.^.^.^.8   3 !.^.^.1       2.^.^.^.^.^.^.^.^.^.^.^.!.d.< .         ",
"    X +X;X;X;XOXH         [ ;X;X*X[ B B  .=X;X;X;X;X;X;X;X@.    Z *X;X;X;X;X#XJ     . ) B.^.^.^.^.r.      k.^.^.i       j.^.z.g #     # 2 u u t o : P.E.j       ",
"    A ;X;X;X;X;X;X}.o.X._.;X;X;X;X;X;X;X;X;X;X[.B M -.;X;X;X@.    - ..-.&.E O       1.^.^.^.^.U.^         l.^.^.G.2 @ 2.^.<.      3 1.l.P.^.J.3.. ) ^.^.U.      ",
"    = -X;X;X;X;X;X;X;X;X;X;X;X;X;X;X;X;X;X;X*X=       ).;X;X;X@.                    n.^.^.^.l.o       # 5.^.^.^.^.^.^.^.B.    : f.^.^.^.^.^.^.^._ / ^.^.^.1     ",
"      ' -X;X;X;X=X/.R M   + ).;X;X;X;X;X;X;X/.        F ;X;X;X;X..                  y.^.^.^.a       ^ E.^.^.^.^.z.L.^.^.2.  5 U.^.^.^.^.^.^.^.^.n.g ^.^.^.1     ",
"        - Y ] J O         - .X;X;X;X;X;X;X;X%.        O ;X;X;X;X-XS         8 ) a   # N.^.^.m.r u z.W.M.l.!.^.^.  3 ~.^.2.. A.^.^.^.^.^.^.^.^.^.b 2 ^.^.^.@     ",
"            & F R R [ ..>.=X;X;X;X;X;X;X;X;X/.          =X;X;X;X;X`.      ^ ^.^.^.3.  . ( !.^.^.^./ o     , U.^.^   s.^.Q i ^.^.^.v.2.) 2.w.7.t   9 ^.^.H.      ",
"        B (.-X;X;X;X;X;X;X[.P ; B -.;X;X;X;X#XX         +X;X;X;X;X;X*   , Q.^.^.^.~.7     j ^.^.B.          7.^.~.4 @ k . 1.^.~.k               , m.^.^.1.      ",
"      S *X;X-X>.).;X;X;X@.        N ;X;X;X;X;XI         XX;X;X;X;X;XF   / ^.^.^.^.^.l.      Y.^.Q.n ~ 3.2   b ^.^.k       ! ^.d.      . 6.P.^.^.^.^.^.G.@       ",
"    X XX;X;XF     *.;X{.X       N }.@X&X;X;X;X+X+       >.;X;X;X;X;XC   ,.^.^.^.^.^.^.3.o 8 Q.R.R.^.^.^.b.  . 5.5..       : !.r.    . g.^.^.^.^.^.~.k.:         ",
"    K ;X;X{.      X.;XI     = *.&XF   O X.;X;X;X(.X     P ;X;X;X;X}.    8 ~.^.^.^.^.^.^.^.^.1..   h Z.^.3.  , ! 0.w.) 6     h.E.r % a.E.1.i u b i #             ",
"    $.;X;X`.      `.;X;   S $X;XX.        (.;X;X;X).&     $.;X;X.XM       p B.^.^.^.^.^.^.M.          @ @ w.~.^.^.^.^.^.z.i C.^.^.^.!.7     . f _ c ,           ",
"    ].;X;XOX    * -X;XB   OX;X;X]         Y ;X;X;X;X+XK     B A X             # 7 a 2.I.^.^     >     @ m.^.^.k.k 8 i 7.E.^.^.^.^.^.y.    a P.^.^.^.~.a.@       ",
"    ].;X;X;X=   [ ;X;XE   ;X;X;X/.        L ;X;X;X;X;X;X`.C                   < Z.a.% @ B.u   a.^.i.  e.^.U.u           < G.^.^.^.^.k   t ~.^.^.^.^.^.^.z.      ",
"    `.;X;X;XG   ).;X;X*.  oX;X;X*X        o.;X;X;X&X+X*X;X;X).F               b ^.^.m.o ! 4.Q ^.^.E.5 ^.~.9               : P.^.^.^.u   S.^.^.^.^.^.^.^.^.o     ",
"    $.;X;X;XU   +X;X;X(.  K -X;X(.      = &X;X%XP     X P +X;X;X'.F           % S.^.^.E.Q.^.^.^.~.! 2.^.q.        ! Z.T.B.i b ^.^.^.u t ^.^.^.^.^.^.^.^.M.      ",
"    D ;X;X&X*   #.;X-XG     ; F X     + [.;X;X|     & F O = XX;X;X;X>.-         . 9 / U.^.^.E.3.:   l.^.u       7.^.^.^.^.~.8 !.^.^.u 3.^.^.^.^.^.^.R.y.%       ",
"      P %.Z       A -               Z |.;X;X;X[   = XX;X{.  A ;X;X;X;X$XF             4 ~.!.5       n.^.1     r ^.~.1.x L.^.5.L.^.^.5 b.^.^.l.j 2 @             ",
"        & ' >.'.'.'.=.@...R R ] +.}.;X;X&X-X;X=X;.@X;X;X;X;   /.;X;X;X;X-XP       f 5   j.k.        d.^.k   . B.^.d.    9 ^.2.J.^.W.@ Q.^.q.      , j :         ",
"      N @X;X;X*X{.].XX;X;X;X;X;X;X;X;X{   + %.;X;X;X;X;X&X+   U ;X;X;X;X;X*X=   j ^.~.b ! k.        1.^.U.( v.^.^.Z..     R.i j.^.) i ^.L..     @ T.^.E.9       ",
"    O +X;X;Xo.O       * { *X;X-X`..X;X;       @.;X;X;X;X'     M ;X;X;X;X;X;X+.  7 ^.^.S.i W.o       b ^.^.^.^.d.x.^.i.  @ ^.o o 2   k.^.9.      1 ^.^.^.G.      ",
"    R ;X;X;XX + +.XX%.*   H ;XW     /.[       X { [.>.D & +   ; ;X;X;X;X;X;XXX    l.^.G.u ^.3.      ) ^.^.^.^.2 . H.^.8 n ^.@     j ^.^.3.      . W.^.^.^.5     ",
"    &.;X;X;X*.+X;X;X;X(.    &XU     - &XD             | =X*X; F ;X;X;X;X;X;X-X    q.^.2.a ^.^.2.o < P.^.^.^.^.y.. 5 d.2 T.^.q.@ Q J.d.~.B.        L.^.^.^.t     ",
"    *.;X;X;X;X;X;X;X;X+X  = ;X{.      ).*XR       + *.;X;X;XD R ;X;X;X;X;X;X@X  # T.J.o q.^.^.^.^.^.^.u M.^.^.^.B.:   y.^.~.M.E.S.:   d.^.`     i ^.^.^.!.#     ",
"    ' ;X;X;X;X;X;X;X;X-.  ..;X;XI     J ;X;XOX=.>.&X;X;X;X.XO S ;X;X;X;X;X;X$.  ) ^.B.9.^.R.,.J.^.^.^.  ^ ^.^.^.^.q.o Q.^.x.      # l T.^.^.F.B.^.^.^.^.8.      ",
"    X [.;X;X;X;X;X;XXX&   ].;X;X*.      | ;X;X;X;X;X;X;X>.=     @.;X;X;X;XXX&   4.^.^.^.^.p   g ^.^.E.  o S.^.^.^.8.: ^.^.Q.:   5 Q.^.S.i i.~.^.^.^.^.i..       ",
"      O ..+X;X;X#Xo.+     P &X=XI         F /.%X-XXX&.S           I /.`. .+     < P.^.W.n       7.Z.j     : h.L.l.%   a.^.W.<   @ 8.a.p     < ) t.2.9           ",
"            & &               X                                                   o 8 @                                 , #                                     ",
"                                                                                                                                                                ",
"                                                                                                                                                                "
};
